<svg width="317" height="329" viewBox="0 0 317 329" fill="none" xmlns="http://www.w3.org/2000/svg">
<path fill-rule="evenodd" clip-rule="evenodd" d="M247.443 198.284C247.443 198.284 251.427 210.125 225.827 228.491C200.227 246.858 157.452 284.043 137.136 285.405C107.12 287.418 108.306 279.179 80.1465 265.489C43.2182 247.535 88.1062 178.885 71.0246 169.112C68.2512 161.639 36.9392 164.372 50.4637 131.701C57.2747 115.247 104.228 111.078 104.228 111.078C104.228 111.078 125.743 105.893 130.234 99.8236C149.068 74.3705 160.242 39.2693 243.69 67.9098C254.482 71.6138 266.783 87.5876 268.579 105.123C269.986 118.86 301.945 127.97 286.233 161.498C278.313 178.397 247.443 198.284 247.443 198.284Z" fill="#6B7280"/>
<path fill-rule="evenodd" clip-rule="evenodd" d="M96.3139 253.841L97.086 254.4C95.3433 255.964 92.7215 254.02 91.2515 252.197C88.888 249.266 86.4892 246.152 85.7699 242.456C85.3606 240.353 85.5244 238.186 85.6897 236.05L86.3565 227.438C86.652 223.621 86.9483 219.798 87.609 216.028C89.397 205.823 93.8978 196.107 100.525 188.144L100.592 188.064C101.762 186.659 103.04 185.124 103.018 183.302C102.97 179.447 105.19 175.844 108.105 173.32C111.02 170.796 114.59 169.177 118.104 167.591C119.697 166.873 121.776 166.23 123.01 167.466C125.548 170.009 129.784 168.389 133.137 167.098C137.253 165.512 141.65 164.658 146.06 164.587C146.189 164.585 146.318 164.583 146.449 164.581C149.096 164.543 152.077 164.5 153.693 162.449C154.721 161.143 156.688 161.218 158.339 161.416L169.694 162.774C170.562 162.878 171.601 163.114 171.875 163.945C172.608 166.17 175.196 167.078 177.439 167.754C185.414 170.159 193.21 173.424 199.98 178.276C206.751 183.128 212.474 189.655 215.51 197.412C210.573 190.664 205.508 183.789 198.657 178.996C196.696 177.625 194.61 176.441 192.494 175.325C187.498 172.691 182.298 170.421 176.896 168.773C151.82 161.119 122.814 168.217 104.106 186.586C101.394 189.249 98.8506 192.183 97.3122 195.659L99.3444 196.29C96.1236 197.729 93.7313 200.883 93.2134 204.373C94.5097 202.153 96.3571 200.258 98.5432 198.905C97.9175 200.995 96.2901 202.675 94.6948 204.321C92.6618 206.419 90.6808 208.464 90.891 211.236C91.8563 208.703 94.2879 206.791 96.9773 206.45C92.7115 210.618 88.134 215.51 88.2699 221.472C89.8259 218.029 92.4681 215.086 95.7245 213.17L91.0365 219.47C89.2636 221.852 87.3965 224.575 87.8018 227.517C89.3441 224.749 91.5493 222.353 94.1803 220.588C92.9133 223.469 91.1044 226.111 88.8763 228.334C90.9952 228.078 93.0352 227.2 94.678 225.838C93.9892 226.799 93.3687 227.884 93.3455 229.067C93.3223 230.249 94.0885 231.518 95.2589 231.688C95.6131 230.896 96.7243 230.561 97.4571 231.026C95.2361 233.187 95.2132 237.191 97.4093 239.378C97.6046 238.35 98.4713 237.484 99.499 237.29C97.8608 240.154 97.5663 243.751 98.7167 246.843C99.0648 245.091 100.037 243.47 101.418 242.337C100.622 246.493 98.8611 250.462 96.3139 253.841ZM95.3437 252.517C96.7306 252.503 97.5931 250.952 97.7378 249.572C97.9108 247.922 97.5008 246.273 97.0941 244.664L94.6816 235.122C94.2276 235.266 94.1749 235.76 94.1196 236.278C94.0725 236.719 94.0235 237.178 93.7215 237.45C93.1109 236.691 93.0415 235.541 93.5564 234.714C94.0763 233.879 93.7363 232.709 92.9987 232.058C92.2612 231.407 91.235 231.186 90.2517 231.153C89.7204 231.136 89.1552 231.177 88.7204 231.483C88.2855 231.788 88.0567 232.439 88.3656 232.872C89.285 234.16 89.9767 235.61 90.3991 237.136C90.4307 237.25 90.4613 237.365 90.4921 237.481C90.702 238.273 90.9179 239.087 91.4973 239.652C91.9452 240.088 92.0594 240.754 92.1504 241.373L92.8874 246.387C93.0216 247.299 93.1557 248.23 93.0022 249.14C92.8486 250.049 92.3571 250.951 91.5322 251.364L94.1665 252.26C94.5487 252.39 94.94 252.522 95.3437 252.517ZM124.058 170.336C123.539 170.446 123.103 169.99 122.732 169.6L122.689 169.556C122.308 169.158 121.653 168.81 121.252 169.188C116.576 173.587 111.256 177.298 105.513 180.167C104.471 180.688 104.331 182.092 104.33 183.257C104.33 183.646 104.703 184.193 104.946 183.888C106.13 182.405 107.669 181.253 109.191 180.119C113.473 176.926 117.807 173.704 122.716 171.599C123.311 171.343 124.009 170.982 124.058 170.336ZM171.05 165.389C170.785 164.767 170.031 164.543 169.367 164.418C167.557 164.077 165.715 163.923 163.875 163.768C161.348 163.556 158.824 163.345 156.392 162.651C155.613 162.428 154.947 163.218 154.52 163.906C155.802 163.773 157.091 163.718 158.38 163.741C160.622 163.783 162.852 164.062 165.078 164.341C166.209 164.483 167.347 164.626 168.432 164.977C168.558 165.018 168.685 165.062 168.813 165.106C169.554 165.36 170.319 165.622 171.05 165.389ZM147.112 174.946C147.625 175.063 148.113 175.446 148.19 175.967C148.266 176.485 147.911 176.991 147.459 177.255C147.006 177.519 146.47 177.593 145.95 177.662L144.386 177.869C144.229 177.89 144.067 177.912 143.931 177.993C143.538 178.226 143.565 178.857 143.886 179.182C144.208 179.507 144.701 179.587 145.158 179.586C147.287 179.582 149.302 178.051 149.952 176.024C150.106 175.543 150.188 175.007 149.997 174.539C149.9 174.302 149.738 174.096 149.558 173.914C148.721 173.065 147.473 172.691 146.284 172.775C145.096 172.859 143.965 173.366 142.997 174.062C142.534 174.396 142.092 174.786 141.828 175.293C141.565 175.8 141.508 176.444 141.803 176.933C141.915 177.12 142.089 177.285 142.304 177.32C142.519 177.355 142.767 177.216 142.794 177C142.868 176.399 143.307 175.891 143.83 175.586C144.353 175.28 144.956 175.146 145.55 175.027C146.065 174.924 146.6 174.829 147.112 174.946ZM105.164 204.679C105.749 201.22 108.544 198.407 111.801 197.104C113.596 196.386 115.65 196.071 117.456 196.763C117.901 196.934 118.332 197.169 118.654 197.522C118.955 197.854 119.145 198.272 119.288 198.697C120.205 201.417 119.274 204.563 117.304 206.651C115.334 208.739 112.465 209.834 109.601 210.04C108.684 210.105 107.699 210.068 106.941 209.547C106.183 209.026 105.807 207.867 106.391 207.156C106.666 207.169 106.815 207.416 106.967 207.668C107.043 207.792 107.119 207.919 107.212 208.019C107.53 208.361 108.056 208.386 108.523 208.366C110.553 208.281 112.614 207.777 114.267 206.595C115.919 205.412 117.107 203.481 117.072 201.449C117.061 200.794 116.919 200.124 116.548 199.585C115.939 198.699 114.788 198.299 113.715 198.37C112.643 198.441 111.637 198.916 110.724 199.483C109.523 200.229 108.412 201.166 107.659 202.363C106.906 203.56 106.537 205.04 106.856 206.418C106.574 206.926 105.737 206.825 105.392 206.358C105.046 205.891 105.068 205.252 105.164 204.679ZM123.863 233.192C122.378 234.147 121.146 235.643 120.917 237.395C120.732 238.812 121.207 240.223 121.675 241.574C122.04 242.627 122.417 243.704 123.113 244.576C124.37 246.15 126.451 246.802 128.44 247.122C128.981 247.209 129.803 246.964 129.61 246.451C127.51 246.412 125.444 245.439 124.078 243.844C122.711 242.249 122.066 240.059 122.349 237.978C122.409 237.54 122.509 237.104 122.693 236.703C123.065 235.89 123.758 235.265 124.509 234.78C126.125 233.736 128.092 233.246 130.009 233.412C131.857 233.571 133.704 234.382 134.832 235.854C135.96 237.327 136.229 239.499 135.234 241.064C135.072 241.319 134.954 241.769 135.25 241.822C136.853 240.958 137.743 239.054 137.653 237.236C137.563 235.417 136.603 233.716 135.284 232.461C134.554 231.767 133.69 231.181 132.711 230.945C131.42 230.634 130.07 230.955 128.786 231.293C127.078 231.742 125.349 232.236 123.863 233.192ZM196.818 235.451C191.446 233.445 185.61 232.697 179.906 233.284C177.514 233.531 175.115 234.019 172.965 235.095C168.908 237.125 166.007 241.305 165.525 245.816C165.042 250.327 166.993 255.026 170.528 257.868C171.869 258.946 173.391 259.753 174.915 260.562L174.915 260.562C175.955 261.113 176.996 261.666 177.981 262.305C178.263 262.574 177.63 262.842 177.259 262.723C173.814 261.611 170.468 259.919 168.01 257.26C165.021 254.026 163.562 249.433 164.139 245.067C164.716 240.701 167.316 236.644 171.043 234.297C173.991 232.44 177.516 231.658 180.997 231.532C184.479 231.407 187.95 231.904 191.393 232.438C193.543 232.771 196.064 233.41 196.818 235.451ZM140.297 242.181C140.053 241.622 139.072 241.477 138.893 242.059C137.754 245.767 134.135 248.571 130.26 248.749C129.384 248.789 128.508 248.708 127.635 248.623C125.755 248.441 123.816 248.227 122.17 247.301C119.803 245.97 118.379 243.237 118.362 240.522C118.345 237.806 119.633 235.167 121.589 233.283C121.318 232.523 120.152 232.89 119.573 233.453C116.366 236.571 115.815 241.952 118.066 245.818C120.317 249.684 125.034 251.851 129.48 251.359C133.926 250.868 137.941 247.891 140.008 243.924C140.289 243.383 140.541 242.74 140.297 242.181ZM112.453 260.958C111.729 263.736 111.66 266.682 112.254 269.491C112.521 270.75 112.55 271.444 112.555 271.574L112.556 271.592C112.556 271.595 112.556 271.596 112.557 271.596C112.557 271.596 112.557 271.594 112.557 271.589L112.558 271.574L112.558 271.574C112.564 271.444 112.595 270.747 112.868 269.486C113.475 266.672 113.331 263.7 112.453 260.958ZM116.301 262.638C115.272 264.795 115.4 267.464 116.63 269.513C116.906 269.973 117.116 270.347 117.271 270.623L117.271 270.623C117.479 270.994 117.587 271.188 117.625 271.175C117.666 271.161 117.622 270.901 117.531 270.356L117.531 270.356L117.531 270.354C117.494 270.136 117.45 269.873 117.4 269.562L116.301 262.638ZM119.199 265.392C118.762 266.77 119.083 268.362 120.02 269.462C120.976 270.585 121.289 270.945 120.997 269.499C120.7 268.023 120.082 266.612 119.199 265.392ZM203.044 249.728C201.731 255.003 197.534 258.999 193.465 262.603C193.651 263.003 194.252 262.86 194.637 262.643C198.759 260.323 202.094 256.543 203.615 252.065C205.137 247.587 204.759 242.442 202.357 238.368C202.155 238.026 201.898 237.662 201.509 237.586C201.119 237.509 200.67 237.961 200.899 238.285C203.208 241.555 204.012 245.844 203.044 249.728ZM143.79 202.107C143.78 201.273 143.792 200.37 144.296 199.705C144.989 198.789 146.305 198.693 147.454 198.677C147.967 198.67 148.486 198.663 148.984 198.782C150.047 199.034 150.893 199.818 151.646 200.608C151.813 200.783 151.991 200.998 151.95 201.236C151.899 201.532 151.528 201.668 151.235 201.607C151.039 201.567 150.864 201.47 150.689 201.373L150.689 201.373L150.688 201.373L150.688 201.373L150.688 201.373L150.688 201.373L150.688 201.372L150.688 201.372L150.688 201.372L150.688 201.372L150.688 201.372L150.688 201.372L150.688 201.372C150.6 201.323 150.511 201.274 150.42 201.233C149.364 200.748 148.123 201.279 147.174 201.95C147.025 202.056 146.864 202.191 146.86 202.374C146.857 202.557 147.014 202.7 147.162 202.808C148.444 203.747 150.085 204.182 151.664 204.001C152.041 203.957 152.485 203.819 152.583 203.452C152.621 203.309 152.606 203.14 152.592 202.977C152.568 202.704 152.545 202.447 152.774 202.353C152.894 202.303 153.029 202.339 153.153 202.375C154.008 202.623 155.007 203.023 155.173 203.897C155.22 204.15 155.186 204.413 155.106 204.658C154.871 205.372 154.215 205.931 153.471 206.049C153.141 206.101 152.805 206.073 152.472 206.044C151.602 205.969 150.731 205.895 149.87 205.756C148.287 205.501 146.74 205.029 145.284 204.359C144.779 204.126 144.254 203.84 143.998 203.346C143.804 202.971 143.795 202.53 143.79 202.107ZM176.289 181.533C175.781 180.158 174.552 179.074 173.125 178.739C172.683 178.636 172.185 178.611 171.81 178.867C171.436 179.122 171.307 179.746 171.664 180.026C172.01 180.297 171.801 180.935 171.378 181.055C170.955 181.176 170.5 180.889 170.289 180.503C170.077 180.117 170.055 179.659 170.052 179.219C170.049 178.632 170.103 177.978 170.536 177.582C170.701 177.431 170.907 177.334 171.111 177.243C171.956 176.865 172.89 176.545 173.793 176.748C174.653 176.941 175.338 177.576 175.938 178.222C176.43 178.752 176.895 179.306 177.331 179.883C177.716 180.391 178.085 180.933 178.23 181.553C178.374 182.174 178.249 182.893 177.77 183.313C177.301 183.724 176.579 183.759 176.01 183.505C175.507 183.281 175.077 182.788 175.115 182.238C175.152 181.689 175.827 181.233 176.289 181.533ZM180.828 220.179C182.089 220.142 183.264 219.171 183.537 217.939C183.703 217.19 183.498 216.298 182.845 215.895C182.368 215.601 181.768 215.622 181.209 215.658C180.434 215.708 179.631 215.776 178.957 216.162C178.284 216.549 177.784 217.35 177.995 218.098C178.338 219.312 179.566 220.215 180.828 220.179ZM180.99 218.359C180.746 218.424 180.398 218.361 180.376 218.11C180.367 218.005 180.423 217.906 180.488 217.823C180.846 217.359 181.529 217.179 182.07 217.405C181.882 217.866 181.47 218.229 180.99 218.359ZM181.641 199.693C181.436 199.219 181.834 198.666 182.318 198.484C182.705 198.339 183.126 198.354 183.543 198.369L183.543 198.369C183.647 198.373 183.751 198.377 183.854 198.378C184.37 198.384 184.941 198.298 185.276 197.905C185.395 197.766 185.475 197.562 185.385 197.404C185.29 197.238 185.068 197.21 184.878 197.2C183.561 197.132 182.006 197.172 181.247 198.25C181.084 198.482 180.684 198.404 180.532 198.165C180.379 197.926 180.414 197.613 180.501 197.343C180.812 196.377 181.705 195.674 182.68 195.392C183.655 195.11 184.702 195.199 185.692 195.423C186.026 195.499 186.372 195.598 186.616 195.838C186.809 196.029 186.917 196.29 186.988 196.552C187.325 197.806 186.827 199.242 185.786 200.017C184.746 200.793 183.227 200.86 182.122 200.179C181.925 200.057 181.733 199.905 181.641 199.693ZM177.127 221.844C177.739 222.577 178.463 223.243 179.342 223.616C181.118 224.37 183.388 223.674 184.436 222.054C184.817 221.464 184.988 220.563 184.424 220.145C183.52 222.044 180.899 222.883 179.061 221.861C178.709 221.665 178.388 221.415 178.097 221.136C176.775 219.87 176.086 217.803 176.861 216.145C177.114 215.605 177.503 215.138 177.927 214.719C178.853 213.805 180.178 213.057 181.414 213.463C181.443 213.473 181.472 213.483 181.501 213.493C181.523 213.501 181.545 213.509 181.568 213.517L181.568 213.517L181.568 213.518L181.568 213.518L181.568 213.518L181.568 213.518C181.741 213.581 181.915 213.645 182.097 213.635C182.333 213.621 182.579 213.41 182.519 213.181C182.501 213.114 182.459 213.055 182.416 213C181.651 212.027 180.152 211.726 179.072 212.33C177.786 213.048 176.479 213.894 175.796 215.198C174.683 217.322 175.591 220.004 177.127 221.844ZM197.606 189.095C197.55 189.176 197.564 189.289 197.577 189.396C197.593 189.525 197.608 189.646 197.503 189.698C197.119 189.888 196.658 189.868 196.248 189.742C195.128 189.399 194.377 188.371 193.744 187.386C193.373 186.809 193.004 186.198 192.944 185.515C192.884 184.833 193.233 184.064 193.891 183.871C194.624 183.656 195.342 184.201 195.913 184.709C196.556 185.282 197.214 185.873 197.612 186.637C198.01 187.401 198.099 188.388 197.606 189.095ZM195.171 186.538C195.329 186.691 195.416 186.898 195.502 187.104C195.587 187.307 195.673 187.511 195.826 187.664C196.021 187.858 196.316 187.945 196.585 187.887C196.082 187.108 195.498 186.38 194.847 185.72C194.673 185.772 194.658 186.03 194.763 186.179C194.827 186.269 194.916 186.335 195.005 186.402C195.062 186.445 195.12 186.488 195.171 186.538ZM99.3112 256.938C99.2491 257.96 99.3274 259.145 100.146 259.762C100.419 259.609 100.4 259.219 100.366 258.909C100.154 256.997 100.747 255.155 101.344 253.301C101.772 251.973 102.201 250.64 102.339 249.27C102.379 248.872 102.273 248.328 101.874 248.313C101.575 248.302 101.382 248.617 101.261 248.891C100.143 251.43 99.4796 254.169 99.3112 256.938ZM178.701 220.058C179.624 220.466 180.648 220.883 181.614 220.589C181.998 220.473 182.341 220.25 182.677 220.031C182.676 220.596 182.19 221.07 181.649 221.232C181.107 221.393 180.525 221.307 179.973 221.187C179.36 221.055 178.61 220.678 178.701 220.058ZM105.656 267.196C105.892 266.776 105.932 266.278 105.967 265.798L106.246 261.975C106.382 260.099 106.519 258.215 106.397 256.338C106.381 256.101 106.357 255.852 106.219 255.659C106.081 255.466 105.789 255.363 105.6 255.506C105.461 255.612 105.425 255.802 105.401 255.975C105.099 258.146 104.937 260.336 104.918 262.528C104.903 264.117 104.976 265.759 105.656 267.196ZM101.477 263.91C101.233 264.117 100.825 263.935 100.69 263.644C100.555 263.353 100.609 263.014 100.667 262.698C101.272 259.399 101.959 256.114 102.725 252.848C102.745 252.766 102.765 252.682 102.818 252.616C103.02 252.367 103.428 252.618 103.571 252.905C103.923 253.61 103.754 254.45 103.579 255.218L101.689 263.46C101.651 263.625 101.606 263.801 101.477 263.91ZM108.023 264.056C107.918 265.294 108.103 266.536 108.288 267.764C108.354 268.201 108.669 268.782 109.064 268.583L109.834 260.349C109.865 260.014 109.887 259.643 109.679 259.378C109.471 259.114 108.945 259.124 108.879 259.454L108.311 262.278C108.193 262.867 108.074 263.458 108.023 264.056ZM187.537 238.82C185.344 237.691 182.676 237.246 180.399 238.192C178.698 238.898 173.891 241.949 173.251 245.859C172.823 248.476 172.827 251.151 173.743 253.678L173.891 254.075C174.164 254.79 175.033 255.613 175.519 255.021C174.1 252.456 173.835 249.279 174.809 246.514C175.783 243.749 177.98 241.44 180.694 240.331C181.265 240.097 181.861 239.914 182.475 239.855C183.717 239.738 184.957 240.14 186.067 240.709C188.458 241.934 191.419 243.971 192.557 246.404C193.654 248.749 194.462 251.547 193.469 253.938C192.476 256.33 185.955 258.06 185.955 258.06L186.677 259.377C186.677 259.377 190.327 258.657 192.557 257.033C201.916 250.216 189.634 239.9 187.537 238.82Z" fill="#F1F5F9"/>
<path fill-rule="evenodd" clip-rule="evenodd" d="M22.087 205.162C18.7769 205.517 15.2708 204.751 12.6863 202.653C10.8559 201.167 9.56976 199.1 8.66726 196.921C7.68742 194.556 7.12408 192.02 7.01083 189.462C6.96819 188.5 6.99109 187.519 7.27402 186.598C7.73967 185.082 8.86105 183.865 10.0058 182.767C12.4411 180.431 15.3037 178.3 18.6421 177.809C20.9169 177.474 23.231 177.93 25.4577 178.504C27.2066 178.954 28.9532 179.484 30.5262 180.371C34.0021 182.331 36.4109 186.069 36.7593 190.044C37.1077 194.019 36.6791 196.653 31.3146 201.592C28.5271 203.412 25.3971 204.807 22.087 205.162ZM27.9244 192.684C27.3875 192.853 26.8524 193.153 26.2982 193.055C25.1659 192.856 24.9632 191.303 25.2147 190.181C25.9344 186.969 28.1729 184.133 31.1293 182.687C30.46 181.473 28.6822 181.384 27.4249 181.967C26.1675 182.551 25.1846 183.602 23.9686 184.268C23.3635 184.599 22.6464 184.833 21.9881 184.627C20.9049 184.288 20.4915 182.869 20.8461 181.791C21.2007 180.713 22.0857 179.908 22.9355 179.156C19.8562 179.263 16.8091 180.188 14.1887 181.809C12.1373 183.077 10.1914 185.158 10.4636 187.555C12.1597 186.189 14.1512 185.193 16.2607 184.654C16.7082 184.54 17.2698 184.482 17.5498 184.849C17.7618 185.128 17.701 185.528 17.565 185.85C16.8908 187.449 14.9078 187.986 13.6779 189.21C13.5164 189.371 13.3615 189.557 13.3224 189.781C13.2458 190.221 13.6651 190.622 14.1056 190.696C14.5462 190.769 14.9884 190.609 15.4063 190.451C16.2741 190.124 17.1419 189.796 18.0097 189.469C18.6379 189.232 19.3838 189.006 19.9425 189.378C20.5204 189.764 20.5749 190.64 20.2483 191.253C19.9216 191.866 19.322 192.277 18.745 192.664C17.3542 193.596 15.9634 194.528 14.5726 195.46C13.4081 196.241 12.1035 197.293 12.2142 198.69C12.3184 200.006 13.7655 200.9 15.0823 200.815C16.3991 200.731 17.5579 199.926 18.5298 199.033C19.5016 198.141 20.3789 197.121 21.5074 196.438C22.2439 195.992 23.2947 195.744 23.893 196.363C24.3552 196.842 24.3106 197.611 24.1371 198.253C23.6372 200.104 22.2854 201.706 20.545 202.511C21.961 202.837 23.4376 202.899 24.8759 202.691C25.6962 202.573 26.5454 202.346 27.1386 201.767C27.7317 201.188 27.9614 200.169 27.4469 199.52C26.6793 198.551 26.7099 197.133 27.2002 195.998C27.6906 194.863 28.5664 193.947 29.4245 193.057C29.1789 192.55 28.4612 192.516 27.9244 192.684ZM34.4798 194.884C35.2509 193.102 35.279 191.086 35.0837 189.154C34.8677 187.017 34.1228 184.574 32.1098 183.825C29.1599 185.05 26.8834 187.781 26.2108 190.903C26.1543 191.166 26.11 191.448 26.2132 191.696C26.3164 191.943 26.6232 192.124 26.8609 191.999C27.6765 191.572 28.6795 191.33 29.5086 191.73C30.3378 192.13 30.7415 193.38 30.0702 194.01C29.3284 194.706 28.5666 195.431 28.1664 196.366C27.7662 197.301 27.8239 198.512 28.5773 199.196C29.1435 199.709 29.1449 200.718 28.5802 201.233C30.1858 200.764 31.3299 199.383 32.371 198.074C33.1669 197.074 33.9721 196.058 34.4798 194.884ZM15.9964 185.667C14.3262 186.36 12.705 187.171 11.1489 188.091C10.7788 188.31 10.4048 188.542 10.1342 188.876C9.76881 189.327 9.62998 189.916 9.51707 190.486C9.15229 192.326 8.96421 194.307 9.73696 196.016C9.98362 196.562 10.3208 197.061 10.6562 197.557C10.7552 197.703 10.8676 197.86 11.0373 197.909C11.2071 197.958 11.4312 197.822 11.3913 197.649C11.2685 197.119 11.6703 196.62 12.0669 196.246C14.3896 194.06 17.5186 192.805 19.6073 190.394C19.2905 190.019 18.6895 190.195 18.2377 190.388C17.1617 190.848 16.0522 191.229 14.9209 191.527C14.3373 191.681 13.687 191.806 13.1544 191.522C12.3749 191.107 12.248 189.97 12.6598 189.188C13.0715 188.407 13.8542 187.902 14.609 187.444C15.3638 186.985 16.1557 186.506 16.6086 185.748C16.5263 185.532 16.2098 185.579 15.9964 185.667ZM21.7125 200.313C22.4506 199.72 23.2481 199.02 23.3286 198.077C23.3707 197.584 23.0543 196.98 22.5614 197.027C22.4099 197.042 22.2716 197.117 22.141 197.195C19.9946 198.477 18.5821 200.984 16.1608 201.608C16.845 201.914 17.5584 202.155 18.2882 202.326C18.5055 202.377 18.7318 202.422 18.9504 202.377C19.2047 202.324 19.4175 202.157 19.62 201.994C20.3175 201.434 21.015 200.873 21.7125 200.313ZM23.7085 179.815C23.2309 180.343 22.7533 180.872 22.2757 181.4C21.8974 181.818 21.4915 182.37 21.7021 182.894C21.8572 183.279 22.3154 183.474 22.7297 183.442C23.144 183.41 23.5214 183.198 23.8689 182.97C25.1071 182.157 26.2219 181.051 27.6669 180.726C26.665 180.361 25.6631 179.996 24.6613 179.631C24.4526 179.555 24.22 179.479 24.0147 179.564C23.8915 179.614 23.7979 179.716 23.7085 179.815Z" fill="#F1F5F9"/>
<path fill-rule="evenodd" clip-rule="evenodd" d="M42.3526 116.716C42.2277 119.219 40.2965 121.93 37.8077 121.633C36.6844 120.334 35.8052 118.722 34.9364 117.128C33.2677 114.068 31.637 111.077 28.3881 110.509C25.1971 109.951 22.2253 112.298 20.2379 114.857C17.3595 118.561 15.4994 123.05 14.913 127.704C14.5683 130.441 15.6906 134.236 18.4324 133.935C21.5641 133.591 23.7913 136.054 26.0567 138.56C28.1533 140.879 30.2825 143.234 33.1918 143.433C36.6558 143.669 39.4853 145.745 42.3495 147.845C44.2624 149.248 46.1909 150.663 48.3341 151.548C52.366 153.214 57.0154 152.892 61.131 151.445C65.2466 149.999 68.9093 147.507 72.3759 144.858L72.5576 144.719C74.4499 143.272 76.4308 141.757 78.7838 141.439C90.8158 139.809 102.007 132.751 108.663 122.596C118.099 130.139 131.293 132.718 142.874 129.282C144.839 128.699 146.817 127.917 148.275 126.475C149.732 125.034 150.558 122.796 149.842 120.875C149.059 118.775 146.717 117.65 144.492 117.38C143.273 117.232 142.043 117.275 140.813 117.319H140.813C139.799 117.355 138.784 117.392 137.774 117.32C131.656 116.888 126.562 112.668 121.929 108.648C128.641 106.59 134.083 101.419 137.676 95.3875C141.269 89.3564 143.195 82.4858 144.658 75.6195C145.428 72.0062 146 67.9357 143.936 64.8719C143.012 63.5005 141.657 62.4979 140.307 61.4989C138.787 60.3738 137.272 59.2532 136.386 57.6156C134.682 54.4657 131.359 52.5978 128.207 50.8962C119.96 46.4433 110.486 41.8603 101.597 44.8341C98.1351 45.9925 95.1442 48.2122 92.2281 50.409C87.3856 54.057 82.198 58.3362 81.276 64.3285C73.3526 60.7837 63.1018 63.6147 58.1208 70.7235C56.9814 72.3495 56.1068 74.1426 55.233 75.9339C54.2043 78.0428 53.1768 80.1491 51.7202 81.9772C45.8696 79.3116 39.9085 76.8886 33.8573 74.7165C31.1744 73.7535 27.9696 72.9025 25.6575 74.5696C23.8037 75.9063 23.235 78.5301 23.7792 80.7499C24.3233 82.9696 25.7761 84.8514 27.3339 86.5237C30.7137 90.1517 34.7736 93.144 39.2394 95.2986C39.3833 95.368 39.5282 95.4371 39.6736 95.5063L39.6739 95.5065L39.6741 95.5066C41.0724 96.1727 42.5098 96.8574 43.4409 98.0802C44.4689 99.4302 44.5327 101.689 43.0915 102.585C40.9628 103.908 40.5709 106.877 41.0072 109.345C41.1563 110.188 41.3752 111.023 41.5937 111.858C42.0149 113.465 42.4349 115.068 42.3526 116.716ZM100.144 129.914C94.7799 135.546 87.2322 138.841 79.5145 139.804C71.7968 140.767 63.916 139.515 56.5437 137.037C58.5268 137.036 59.9608 134.44 58.9058 132.76C54.8427 137.497 48.6484 139.715 42.7459 141.741C37.4134 143.571 31.0396 142.242 27.1227 138.187C23.2057 134.132 22.1457 127.479 24.9003 122.56C26.0977 120.422 28.1285 118.56 30.5701 118.351C33.0116 118.141 35.6407 120.165 35.4142 122.605C34.0556 122.369 32.6258 123.523 32.5698 124.901C37.8259 124.335 42.7673 121.323 45.6791 116.911C46.6842 115.388 47.4479 113.729 48.2123 112.069C48.7256 110.954 49.2391 109.839 49.8262 108.763C51.2876 106.087 53.3859 103.535 56.2937 102.615C58.6274 101.877 61.1502 102.287 63.5623 102.703L74.278 104.55C75.0801 103.858 73.7812 102.748 72.7441 102.532C69.3951 101.832 65.9994 101.401 62.6034 100.969L62.6033 100.969L62.6033 100.969L62.6032 100.969L62.6031 100.969L62.6031 100.969L62.603 100.969L62.6029 100.969L62.6028 100.969C59.4537 100.569 56.3044 100.169 53.1917 99.5553C46.7222 98.2789 40.22 95.9442 35.5111 91.328C38.7052 89.4905 41.1354 86.3682 42.1325 82.8207C42.3342 82.1031 41.8536 80.9241 41.2708 81.3889C40.6049 83.6918 39.8832 86.0937 38.2148 87.8151C36.5465 89.5366 33.6181 90.2928 31.7298 88.8159C29.2785 86.8987 26.7013 84.8073 25.7319 81.8501C24.7624 78.893 26.296 74.9215 29.3868 74.559C30.7741 74.3962 32.1304 74.9695 33.4097 75.5303L46.3165 81.1879C50.1579 82.8718 54.0565 84.5725 58.206 85.1835C61.1195 85.6125 64.0826 85.4921 67.0251 85.3707L75.3666 85.0267C75.7077 85.0126 76.0575 84.9966 76.3715 84.8627C77.2096 84.5052 77.4938 83.4816 77.6787 82.5894C79.9172 71.7878 82.9246 60.3887 91.061 52.9398C94.7018 49.6067 99.237 47.2599 104.061 46.213C108.816 45.1811 114.062 45.4845 118.156 48.1143C111.288 48.6197 104.62 51.5155 99.563 56.1886C97.4381 53.9204 93.4835 55.7744 91.7887 58.3797C89.1616 62.4184 89.2093 68.0286 91.9048 72.022C94.1737 75.3833 95.0151 79.3941 95.8584 83.4142C96.6335 87.1088 97.4102 90.8112 99.2982 94.0248C102.285 99.1085 107.847 102.372 113.656 103.383C119.464 104.395 125.486 103.338 131.007 101.268C124.828 107.431 114.957 109.563 106.786 106.499C106.19 106.276 105.598 106.026 105.005 105.777L105.005 105.776L105.005 105.776L105.004 105.776L105.004 105.776C103.127 104.986 101.243 104.192 99.2287 104.216C100.409 105.465 101.915 106.403 103.558 106.91C101.664 110.09 99.6778 113.215 97.6017 116.279C97.3361 116.671 97.0336 117.089 96.5791 117.221C96.0727 117.369 95.5439 117.116 95.0822 116.861C91.2652 114.752 87.8439 111.929 85.0477 108.582L79.454 115.386C82.3246 118.895 85.6806 122.006 89.3966 124.603C84.4508 130.713 76.9576 134.692 69.126 135.369C77.2328 135.781 85.4398 131.979 90.3663 125.528C93.4852 127.279 96.7619 128.749 100.144 129.914ZM125.781 70.0831C127.573 68.1297 128.236 65.3397 128.083 62.6938C127.93 60.0478 127.04 57.5032 126.055 55.0426C128.621 54.7384 131.228 55.7065 133.272 57.2874C135.316 58.8682 136.852 61.0192 138.111 63.2755C139.638 66.0107 140.808 68.9683 141.316 72.0592C142.512 79.337 139.959 86.7576 136.324 93.1754C135.619 94.4216 134.859 95.6592 133.829 96.6541C132.792 97.6559 131.516 98.3761 130.208 98.9837C124.812 101.491 118.604 102.215 112.776 101.016C116.496 97.9178 119.124 93.6501 120.797 89.107C122.471 84.564 123.237 79.7354 123.678 74.9141L123.68 74.8871C123.792 73.6714 123.908 72.3936 124.601 71.3896C124.831 71.0572 125.115 70.7691 125.399 70.4808C125.528 70.3496 125.657 70.2184 125.781 70.0831ZM119.048 90.1639C117.443 93.9194 114.955 97.3678 111.583 99.6725C111.188 99.9424 110.764 100.203 110.289 100.258C109.87 100.307 109.45 100.192 109.047 100.065C106.18 99.1598 103.471 97.5557 101.632 95.1776C100.965 94.3146 100.42 93.3628 99.9338 92.3861C96.3938 85.2729 96.047 76.6428 99.005 69.2686C99.1463 68.9163 99.3484 68.5208 99.7207 68.447C100.202 68.3514 100.572 68.844 100.842 69.2536C103.052 72.6018 107.183 74.2969 111.191 74.4724C115.199 74.648 119.141 73.5089 122.941 72.2244C122.249 73.918 122.072 75.7631 121.898 77.5908L121.897 77.5934L121.897 77.5957C121.875 77.8242 121.854 78.0525 121.831 78.2802C121.423 82.3441 120.654 86.4085 119.048 90.1639ZM118.232 55.2753C120.283 54.8091 122.676 54.6808 124.243 56.0835C124.749 56.5366 125.125 57.1177 125.434 57.7224C127.375 61.5152 126.615 66.5105 123.634 69.5543C120.187 73.0731 114.733 73.6532 109.825 73.2355C108.064 73.0856 106.253 72.8147 104.75 71.8854C102.805 70.683 101.653 68.5644 100.588 66.5409C105.316 61.2569 111.318 56.8471 118.232 55.2753ZM134.818 119.063C134.175 120.687 133.525 122.334 133.314 124.068C133.104 125.803 133.378 127.665 134.433 129.057C125.679 129.542 116.782 126.842 109.773 121.575C112.033 118.376 113.818 114.842 115.051 111.125C115.538 109.657 117.398 109.044 118.907 109.384C120.296 109.697 121.463 110.588 122.601 111.458L122.712 111.543C122.773 111.589 122.834 111.636 122.895 111.682C126.621 114.511 130.728 116.792 134.818 119.063ZM73.6438 141.248C72.2632 142.802 70.6131 144.093 68.9276 145.31C65.4094 147.85 61.5727 150.159 57.2965 150.897C51.0295 151.978 44.2589 149.275 40.4598 144.175L54.1289 139.076C54.4561 138.954 54.7951 138.83 55.1438 138.85C55.3409 138.861 55.5304 138.918 55.7203 138.974C55.8467 139.012 55.9733 139.05 56.1024 139.074C56.5413 139.157 56.9839 139.084 57.4286 139.011L57.4287 139.011C57.7053 138.965 57.9827 138.92 58.2604 138.911C59.2835 138.881 60.2238 139.348 61.1541 139.811C61.3903 139.928 61.6259 140.046 61.862 140.154C65.4867 141.821 69.6658 141.551 73.6438 141.248ZM53.9073 82.7634C53.8109 82.5479 53.9125 82.3 54.0142 82.087C56.8135 76.2243 60.5167 70.7942 64.9527 66.0477C68.0728 70.3802 70.1495 75.4588 70.9587 80.7362C71.1205 81.7911 70.9457 83.2499 69.8866 83.382C64.8104 84.0147 59.6452 83.9287 54.5929 83.1274C54.3259 83.085 54.0176 83.0103 53.9073 82.7634ZM73.0261 82.4015C71.9808 76.6555 69.811 71.1161 66.6753 66.1889C69.3294 64.7916 72.4668 64.7688 75.4662 64.7782C77.3604 64.7841 79.4283 64.8508 80.8718 66.0773L77.1273 77.126C76.4916 79.0017 75.8478 80.93 75.928 82.9089L73.561 82.9468C73.4767 82.9482 73.3896 82.949 73.3118 82.9166C73.1224 82.8375 73.0628 82.6035 73.0261 82.4015ZM103.482 110.676C104.11 109.607 104.709 108.464 104.773 107.225C107.605 108.499 110.724 109.13 113.828 109.058C114.315 109.046 114.298 109.798 114.098 110.242C113.494 111.588 112.888 112.934 112.189 114.233C111.471 115.566 110.656 116.843 109.842 118.119L107.89 121.178C107.623 121.597 107.347 122.025 106.95 122.324C105.885 123.125 104.364 122.739 103.149 122.193C101.132 121.287 99.276 120.026 97.6917 118.484C99.892 116.097 101.837 113.475 103.482 110.676ZM30.249 113.32C31.1873 114.266 31.8005 115.478 32.3983 116.669L29.5834 117.07C28.6455 117.204 27.6838 117.346 26.8548 117.804C26.0483 118.25 25.4263 118.966 24.8789 119.707C22.5895 122.809 21.3207 126.651 21.3127 130.506C21.3098 131.898 19.6641 132.892 18.3172 132.539C16.9704 132.186 16.0554 130.848 15.8225 129.475C15.5897 128.102 15.9176 126.699 16.3288 125.368C17.776 120.687 20.3647 116.266 24.1948 113.21C24.9266 112.626 25.7352 112.079 26.6597 111.932C27.9754 111.721 29.3106 112.374 30.249 113.32ZM148.457 121.156C148.783 121.574 149.024 122.084 149.009 122.614C148.99 123.299 148.556 123.899 148.089 124.4C145.371 127.312 141.195 128.303 137.24 128.771C136.979 128.801 136.706 128.829 136.461 128.733C136.26 128.655 136.099 128.5 135.956 128.339C135.001 127.266 134.623 125.765 134.701 124.331C134.778 122.897 135.273 121.516 135.889 120.219C136.019 119.946 136.169 119.659 136.434 119.513C136.645 119.396 136.897 119.387 137.138 119.38L141.925 119.255C143.104 119.224 144.295 119.194 145.449 119.437C146.603 119.68 147.733 120.226 148.457 121.156ZM95.1071 75.9257C93.1566 72.3116 91.6974 68.4328 90.782 64.4292L91.57 62.3244C92.545 60.4371 93.7739 58.6812 95.2133 57.1189C95.7995 56.4826 96.8157 56.4122 97.6247 56.7188C98.4337 57.0254 99.0845 57.635 99.7126 58.23L102.539 60.9076C102.623 60.9872 102.711 61.0731 102.739 61.1854C102.791 61.3969 102.617 61.5905 102.459 61.7406C101.135 62.9989 99.9593 64.4177 99.0164 65.9816C97.5913 68.3454 96.7211 70.9944 95.8625 73.6177L95.1071 75.9257ZM102.33 55.6276C108.085 52.5457 114.379 49.6456 120.869 50.3391C124.263 50.7017 127.509 52.0517 130.335 53.964C122.238 51.8827 113.213 53.8025 106.664 58.9993C105.651 59.8025 104.133 60.6749 103.232 59.7489C103 59.5111 102.849 59.178 102.701 58.8534C102.465 58.3335 102.239 57.8356 101.71 57.7869C101.205 57.7405 100.981 57.0558 101.195 56.5965C101.409 56.1371 101.884 55.8668 102.33 55.6276ZM86.5224 111.997C87.6582 113.089 88.9089 114.052 90.1568 115.013L95.1983 118.896C93.6458 120.264 92.1268 121.67 90.6431 123.113C87.1111 121.019 83.9584 118.288 81.3831 115.09C82.7928 113.622 84.146 112.099 85.4388 110.527C85.6419 111.107 86.0792 111.571 86.5224 111.997ZM54.1079 101.495C51.4534 103.568 48.709 105.751 47.2489 108.787C46.9636 109.38 46.7279 110.004 46.4925 110.628C45.9923 111.953 45.4938 113.273 44.5239 114.281C44.094 114.155 43.9249 113.648 43.8202 113.213L42.8101 109.011C42.6738 108.444 42.5365 107.862 42.614 107.284C42.691 106.709 42.9746 106.185 43.2532 105.676L46.2169 100.259C46.283 100.139 46.3516 100.015 46.4574 99.927C46.7196 99.7092 47.1076 99.7786 47.4386 99.8597L54.1079 101.495ZM97.2316 120.1C99.0418 121.961 101.292 123.392 103.745 124.242C104.204 123.811 105.09 124.049 105.271 124.652C104.427 125.747 103.5 126.779 102.501 127.735C102.055 128.162 101.341 128.072 100.739 127.934C97.7987 127.259 94.9667 126.116 92.3825 124.56C92.2096 124.456 92.0151 124.308 92.0321 124.106C92.0436 123.971 92.1502 123.866 92.25 123.774L95.8783 120.432C96.2588 120.082 96.871 119.729 97.2316 120.1ZM143.556 73.4187C143.522 73.8282 143.465 74.2852 143.145 74.5428C143.142 71.3263 142.344 68.1134 140.842 65.2691C140.57 64.7532 140.275 64.249 139.946 63.7669C139.925 63.7361 139.904 63.7053 139.883 63.6745C139.862 63.6453 139.842 63.6161 139.822 63.5869L139.818 63.5813L139.818 63.5807C139.486 63.1023 139.147 62.6127 139.067 62.0415L142.955 66.103C143.312 66.4767 143.68 66.8665 143.849 67.3554C144.012 67.8269 143.973 68.3411 143.933 68.8383L143.556 73.4187ZM139.089 68.2573L138.208 67.1476C137.24 65.9266 136.051 64.5934 134.493 64.5917C133.588 64.5907 132.756 65.0539 131.972 65.5038L130.753 66.2029C130.42 66.3939 130.078 66.5925 129.843 66.8963C129.166 67.7722 129.66 69.052 130.3 69.9554C130.743 70.5806 131.273 71.1809 131.978 71.4817C132.889 71.8709 133.937 71.6988 134.893 71.4353C136.201 71.0745 137.465 70.5541 138.648 69.8891C139.026 69.6765 139.444 69.365 139.425 68.9315C139.414 68.6762 139.248 68.4575 139.089 68.2573ZM131.397 69.1137C131.245 68.8725 131.089 68.6148 131.086 68.33C131.082 67.773 131.637 67.3992 132.126 67.1325L133.864 66.1847C134.127 66.0413 134.4 65.8948 134.699 65.8746C134.998 65.8545 135.33 65.9983 135.43 66.2803C135.726 67.1124 136.456 67.7761 137.313 67.992C137.59 68.0619 137.679 68.4458 137.548 68.6999C137.417 68.9541 137.149 69.1026 136.893 69.2297C135.977 69.6842 135.019 70.0549 134.036 70.3354C133.642 70.4479 133.225 70.5463 132.826 70.4515C132.174 70.2964 131.754 69.6813 131.397 69.1137ZM119.035 77.6928C117.311 77.8935 116.984 81.0009 117.784 82.6583C117.949 82.9993 118.206 83.3504 118.582 83.398C119.224 83.4795 119.579 82.6871 119.721 82.0555L119.725 82.0409C119.912 81.2086 120.748 77.4933 119.035 77.6928ZM110.147 81.7693C110.491 80.9654 110.606 80.0645 110.474 79.1999C110.413 78.7981 110.292 78.3902 110.024 78.0851C109.756 77.7801 109.312 77.6027 108.929 77.7402C108.583 77.8647 108.366 78.2033 108.202 78.5325C107.624 79.695 107.393 81.0279 107.547 82.3171C107.619 82.9168 108.375 83.2446 108.948 83.0549C109.522 82.8652 109.909 82.3244 110.147 81.7693ZM115.227 79.9294C115.495 79.7077 115.832 80.1104 115.941 80.4404C116.298 81.5252 116.593 82.6302 116.825 83.7483C116.972 84.4549 117.093 85.189 116.937 85.8935C116.717 86.8868 115.962 87.6948 115.085 88.2123C114.209 88.7298 113.212 88.9977 112.229 89.2599C111.969 89.3291 111.643 89.3785 111.475 89.1685C111.333 88.9902 111.403 88.711 111.565 88.5504C111.724 88.3929 111.946 88.3203 112.159 88.2504L112.171 88.2462C113.704 87.7428 115.341 86.8342 115.698 85.2609C115.894 84.3959 115.656 83.527 115.416 82.6543C115.198 81.8595 114.979 81.0617 115.086 80.2611C115.103 80.1391 115.133 80.0079 115.227 79.9294ZM104.525 76.391C104.121 75.832 104.444 74.9825 105.029 74.618C105.615 74.2534 106.354 74.2584 107.038 74.3466C107.854 74.452 108.657 74.6597 109.423 74.9632C109.585 75.0278 109.761 75.11 109.832 75.2699C109.965 75.566 109.622 75.8902 109.297 75.8899C109.036 75.8897 108.799 75.7639 108.565 75.6397L108.565 75.6396C108.508 75.6095 108.452 75.5795 108.395 75.5514C107.118 74.9176 105.424 75.285 104.525 76.391ZM119.245 76.1984C119.852 76.0974 120.496 76.2376 121.006 76.5817C121.219 76.7256 121.524 76.4837 121.525 76.2265C121.527 75.9693 121.335 75.753 121.133 75.594C120.697 75.2514 120.155 75.0464 119.602 75.0152C119.245 74.995 118.85 75.064 118.62 75.3378C118.39 75.6116 118.46 76.1254 118.804 76.2208C118.927 76.2548 119.056 76.2318 119.183 76.2092C119.204 76.2055 119.225 76.2018 119.245 76.1984ZM111.712 91.9684C111.883 91.872 112.108 92.0404 112.134 92.2349C112.159 92.4294 112.048 92.6155 111.921 92.7651C111.285 93.5162 110.188 93.7475 109.22 93.5714C108.251 93.3953 107.383 92.8747 106.566 92.3254C106.182 92.0671 105.804 91.8004 105.431 91.5253C105.045 91.2402 104.634 90.8914 104.588 90.4138C104.542 89.9362 105.153 89.4549 105.503 89.7838C106.361 90.5923 107.24 91.4142 108.307 91.9145C109.375 92.4148 110.685 92.548 111.712 91.9684ZM93.327 95.7978C89.7497 88.0219 88.2573 79.2985 89.0462 70.7756C89.0597 70.6299 89.0781 70.474 89.1743 70.3638C89.31 70.2084 89.5886 70.2149 89.7169 70.3764C89.6711 75.0648 89.6273 79.7814 90.3927 84.4072C91.158 89.0329 92.7831 93.6094 95.7503 97.2397C95.8389 97.3481 95.9289 97.456 96.019 97.5641C96.5294 98.1762 97.0441 98.7934 97.3336 99.5315C95.4041 99.4943 94.1336 97.551 93.327 95.7978ZM96.8358 60.6843C96.7697 60.6128 96.6927 60.5497 96.6033 60.5111C96.3453 60.3997 96.0428 60.5139 95.8169 60.6811C94.9165 61.3476 94.9129 62.9062 95.8104 63.5768C96.2481 63.2038 96.6975 62.8163 96.954 62.3016C97.2106 61.7868 97.2261 61.1067 96.8358 60.6843ZM104.6 68.8959C105.57 69.6837 106.676 70.3042 107.854 70.7219C111.656 72.07 115.928 71.2236 119.597 69.5468C120.157 69.2906 120.872 69.4256 121.301 69.8686C118.945 71.5472 116.059 72.4698 113.167 72.4692C112.529 72.469 111.892 72.4253 111.257 72.3698C109.956 72.2562 108.646 72.0896 107.423 71.6342C106.2 71.1789 105.058 70.4086 104.366 69.3023L104.6 68.8959ZM145.998 120.132C145.96 120.262 146.064 120.386 146.16 120.481L147.604 121.914C147.762 121.502 147.585 121.022 147.282 120.701C146.979 120.38 146.57 120.185 146.171 119.997C146.093 120 146.02 120.057 145.998 120.132Z" fill="#F1F5F9"/>
<path fill-rule="evenodd" clip-rule="evenodd" d="M240.862 64.3728C242.632 64.9861 244.299 63.3902 245.824 62.3029C248.183 60.6206 251.261 59.9845 254.095 60.5937C254.564 60.6948 255.057 60.8465 255.366 61.2143C255.649 61.5506 255.73 62.0094 255.775 62.4466C256.054 65.123 255.385 67.8886 253.913 70.1413C253.197 71.2372 252.3 72.213 251.66 73.3548C251.02 74.4966 250.654 75.8916 251.11 77.1186C253.822 84.4137 252.694 93.0182 248.192 99.367C243.69 105.716 235.944 109.628 228.162 109.482C224.183 109.408 220.284 108.346 216.534 107.01C214.898 106.427 213.1 105.788 211.476 106.403C208.513 107.526 205.393 108.235 202.236 108.504C201.452 108.57 200.633 108.604 199.911 108.295C198.828 107.832 198.175 106.659 198.051 105.488C197.927 104.318 198.25 103.146 198.659 102.042C199.892 98.7123 203.72 93.5107 206.037 92.3125C205.849 88.269 205.87 84.1782 206.744 80.2259C207.618 76.2737 209.402 72.4386 212.329 69.6422C213.538 68.4871 214.921 67.5257 216.37 66.6915C223.698 62.472 232.872 61.6035 240.862 64.3728ZM229.702 64.0443C224.098 64.1755 218.642 66.4266 214.262 69.924C212.975 70.9508 211.767 72.0916 210.801 73.4246C210.04 74.4754 209.438 75.6348 208.935 76.8308C205.952 83.9276 206.633 92.4543 210.705 98.9873C210.794 99.1298 210.896 99.2807 211.054 99.3361C211.25 99.4044 211.46 99.3049 211.643 99.2075C224.435 92.3908 235.82 82.9498 244.887 71.6414C245.103 71.3721 245.33 71.0593 245.284 70.7173C245.249 70.4607 245.066 70.2524 244.887 70.065C241.018 66.0085 235.306 63.9131 229.702 64.0443ZM237.537 106.41C243.612 103.557 248.227 97.9209 250.2 91.5058C250.647 90.0532 250.968 88.5515 251 87.032C251.026 85.7542 250.848 84.4819 250.67 83.2162C250.412 81.3813 250.154 79.5463 249.897 77.7114C249.828 77.2249 249.359 76.5827 249.017 76.935C239.511 86.7179 229.131 95.651 218.041 103.593C217.672 103.857 217.265 104.184 217.245 104.638C217.222 105.163 217.723 105.543 218.178 105.806C223.993 109.159 231.461 109.262 237.537 106.41ZM200.061 105.663C200.503 106.372 201.461 106.517 202.296 106.54C206.677 106.661 211.012 105.377 214.932 103.417C218.852 101.456 222.399 98.8332 225.847 96.1272C230.446 92.518 234.907 88.7353 239.255 84.8277C244.639 79.9881 249.93 74.8548 253.465 68.5368C254.149 67.3147 254.78 65.9746 254.673 64.5783C254.566 63.182 253.453 61.7722 252.053 61.8268C249.084 61.9426 246.164 63.0844 243.903 65.0137C243.454 65.3974 243.772 66.2142 244.325 66.4218C244.878 66.6295 245.495 66.4232 246.036 66.1845C246.576 65.9459 247.139 65.6668 247.727 65.7321C248.624 65.8318 249.261 66.7505 249.315 67.6518C249.368 68.5531 248.97 69.4194 248.5 70.1905C247.631 71.6176 246.496 72.8616 245.349 74.0767C235.154 84.878 223.393 94.1991 210.548 101.658C209.392 102.33 208.221 102.989 206.976 103.478C206.323 103.735 205.575 103.941 204.938 103.647C203.893 103.166 203.809 101.699 204.122 100.592C204.593 98.93 205.61 97.4275 206.978 96.3731C206.719 95.643 206.46 94.9129 206.201 94.1828C202.824 96.3401 200.453 100.009 199.876 103.975C199.792 104.547 199.755 105.172 200.061 105.663ZM209.664 100.653C209.687 100.577 209.644 100.499 209.602 100.432C209.165 99.7387 208.729 99.0455 208.293 98.3523C208.095 98.0387 207.714 97.6834 207.417 97.9064C206.351 98.7096 205.588 99.9058 205.308 101.211C205.253 101.469 205.221 101.757 205.361 101.98C205.622 102.395 206.246 102.302 206.707 102.137C207.691 101.784 208.638 101.331 209.53 100.787C209.585 100.753 209.644 100.714 209.664 100.653ZM247.617 67.6539C247.574 67.4739 247.359 67.3956 247.174 67.3875C246.612 67.363 246.024 67.8252 246.06 68.3867C246.096 68.9483 246.93 69.3019 247.279 68.8603C247.384 68.727 247.429 68.5571 247.471 68.3925C247.512 68.2294 247.554 68.0663 247.596 67.9032C247.616 67.8215 247.637 67.7358 247.617 67.6539Z" fill="#F1F5F9"/>
</svg>
