<svg width="235" height="200" viewBox="0 0 235 200" fill="none" xmlns="http://www.w3.org/2000/svg">
    <path d="M159.03 8.7481C159.03 8.7481 127.068 49.2336 75.929 25.0847C24.7902 0.935814 -26.3487 66.2798 17.6876 106.054C61.7239 145.829 18.631 167.685 48.5475 192.061C82.5496 219.767 112.152 163.585 139.142 176.37C198.71 204.587 242.84 193.417 232.897 160.745C215.442 103.393 193.123 99.6626 210.168 69.8311C227.214 39.9996 189.593 -22.0259 159.03 8.7481Z" fill="#DEE9FF"/>
    <path d="M117.111 95.2853V180.223L51.1636 151.739L51.4782 67.108L117.111 95.2853Z" fill="#418DF9"/>
    <path d="M117.112 95.3359V180.274L182.738 152.773V67.3789L117.112 95.3359Z" fill="#A2BDFF"/>
    <path d="M117.111 95.2852L183.058 67.6634L117.629 38.6604L51.1636 66.9729L117.111 95.2852Z" fill="#0E84E5"/>
    <path d="M33.1545 82.1247L99.5217 114.339C99.7001 114.425 99.9019 114.451 100.096 114.412C100.291 114.372 100.467 114.27 100.597 114.121L117.111 95.285L51.1636 66.9727L33.0068 80.5865C32.8827 80.6796 32.7845 80.803 32.7218 80.945C32.6592 81.0869 32.634 81.2426 32.6489 81.3971C32.6637 81.5515 32.718 81.6996 32.8065 81.827C32.8951 81.9544 33.0149 82.0569 33.1545 82.1247Z" fill="#699CFF"/>
    <path d="M183.058 67.6633L201.373 84.2221C201.485 84.3231 201.57 84.4504 201.62 84.5925C201.67 84.7345 201.684 84.8869 201.66 85.0357C201.637 85.1844 201.576 85.325 201.485 85.4445C201.393 85.564 201.273 85.6588 201.135 85.7201L135.586 114.975C135.411 115.053 135.216 115.073 135.029 115.033C134.841 114.993 134.671 114.895 134.543 114.752L117.111 95.2852L183.058 67.6633Z" fill="#699CFF"/>
    <path d="M117.628 38.6603L183.241 67.6633L192.677 65.4762C192.863 65.4332 193.03 65.3327 193.155 65.1891C193.28 65.0456 193.357 64.8661 193.374 64.6765C193.391 64.4868 193.348 64.2965 193.251 64.1327C193.154 63.9689 193.008 63.84 192.833 63.7642L132.92 37.8042C132.789 37.7474 132.647 37.7224 132.504 37.7314L117.628 38.6603Z" fill="#699CFF"/>
    <path d="M117.629 38.6603L52.3836 67.1079L44.1358 65.7219C43.9448 65.6862 43.7704 65.5901 43.6383 65.4477C43.5062 65.3053 43.4234 65.1242 43.4022 64.9311C43.381 64.738 43.4225 64.5432 43.5205 64.3755C43.6186 64.2078 43.768 64.0761 43.9467 63.9999L105.34 37.5417C105.476 37.484 105.623 37.4603 105.77 37.4727L117.629 38.6603Z" fill="#699CFF"/>
    <path d="M185.63 167.03C194.626 167.03 201.919 159.737 201.919 150.741C201.919 141.745 194.626 134.452 185.63 134.452C176.634 134.452 169.341 141.745 169.341 150.741C169.341 159.737 176.634 167.03 185.63 167.03Z" fill="#418DF9" stroke="white" stroke-width="15" stroke-miterlimit="10"/>
    <path d="M190.807 145.913C190.538 144.978 190.161 144.218 189.677 143.639C189.209 143.074 188.601 142.64 187.914 142.381C186.432 141.869 184.821 141.869 183.339 142.381C182.653 142.638 182.047 143.072 181.583 143.639C181.091 144.218 180.715 144.978 180.452 145.913C180.19 146.849 180.055 147.992 180.055 149.338V152.083C180.055 153.429 180.19 154.573 180.459 155.515C180.67 156.352 181.058 157.134 181.596 157.809C182.064 158.38 182.671 158.821 183.359 159.088C184.834 159.617 186.446 159.617 187.921 159.088C188.605 158.821 189.209 158.38 189.671 157.809C190.201 157.131 190.584 156.349 190.795 155.515C191.057 154.573 191.192 153.429 191.192 152.083H191.206V149.338C191.205 147.992 191.07 146.849 190.807 145.913ZM188.352 152.493C188.361 153.226 188.302 153.958 188.177 154.68C188.092 155.194 187.916 155.688 187.659 156.14C187.46 156.489 187.166 156.774 186.811 156.961C186.446 157.137 186.045 157.224 185.64 157.217C185.235 157.223 184.835 157.135 184.469 156.961C184.11 156.773 183.809 156.489 183.601 156.14C183.338 155.689 183.156 155.195 183.063 154.68C182.926 153.96 182.862 153.227 182.875 152.493V148.9C182.863 148.17 182.924 147.439 183.057 146.72C183.145 146.216 183.326 145.733 183.589 145.294C183.797 144.958 184.096 144.688 184.45 144.513C184.817 144.354 185.213 144.271 185.614 144.271C186.014 144.271 186.411 144.354 186.778 144.513C187.135 144.684 187.435 144.955 187.639 145.294C187.902 145.733 188.083 146.216 188.171 146.72C188.304 147.439 188.365 148.169 188.353 148.9V152.493H188.352Z" fill="white"/>
</svg>
