<svg width="226" height="198" viewBox="0 0 226 198" fill="none" xmlns="http://www.w3.org/2000/svg">
<path d="M124.372 11.7351C124.372 11.7351 105.623 53.8166 56.0401 44.1765C6.45759 34.5364 -23.4157 102.359 23.4603 127.088C70.3364 151.817 37.8501 180.226 69.1132 194.737C104.646 211.229 117.896 156.081 144.074 161.203C201.848 172.507 237.586 153.12 221.783 127.03C194.044 81.2327 173.903 82.9187 182.088 53.3438C190.273 23.769 144.05 -21.6335 124.372 11.7351Z" fill="#94A3B8"/>
<path d="M115.322 107.78C110.965 116.129 109.866 120.567 96.6506 128.852C96.548 128.919 96.471 129.018 96.4324 129.135C94.3211 135.68 90.7471 141.659 85.9815 146.617C85.9173 146.683 85.8722 146.766 85.8508 146.855C85.8295 146.945 85.8328 147.039 85.8603 147.126C87.3394 152.049 88.9403 160.924 84.4862 168.198C77.9392 178.908 73.0902 172.442 74.1 170.017C74.9648 167.939 82.3524 163.478 80.6469 152.332C80.6326 152.243 80.5956 152.159 80.5394 152.088C80.4832 152.017 80.4097 151.962 80.3261 151.928C80.2424 151.894 80.1514 151.882 80.0618 151.893C79.9722 151.904 79.887 151.939 79.8144 151.992C74.4596 155.879 68.3136 158.537 61.8143 159.776C61.7421 159.788 61.6733 159.815 61.6124 159.856C61.5514 159.896 61.4998 159.949 61.4608 160.011C61.4218 160.073 61.3964 160.142 61.3863 160.215C61.3762 160.287 61.3815 160.361 61.402 160.431C63.059 166.364 63.843 175.635 56.9242 184.162C53.2305 188.607 48.3323 182.109 53.2305 177.68C56.2695 174.94 56.0351 167.059 54.6126 160.989C54.5854 160.871 54.5181 160.767 54.4223 160.693C54.3264 160.619 54.208 160.581 54.0871 160.585C53.8043 160.593 53.5131 160.593 53.2305 160.593C43.233 160.608 33.5133 157.304 25.5957 151.2C25.5233 151.144 25.4374 151.107 25.3464 151.094C25.2555 151.08 25.1626 151.091 25.077 151.124C24.9914 151.158 24.9159 151.213 24.8581 151.284C24.8002 151.356 24.762 151.441 24.7471 151.532C22.8475 164.076 30.389 168.416 31.4637 171.633C32.66 175.23 29.9118 178.431 26.5252 177.526C26.4518 177.504 26.3832 177.468 26.3232 177.42C15.2822 169.128 16.244 151.75 17.4564 143.384C17.4675 143.316 17.4639 143.246 17.4457 143.179C17.4276 143.112 17.3954 143.05 17.3513 142.996C11.1769 135.051 7.83427 125.27 7.85409 115.208C7.85409 96.7552 18.8708 80.8726 34.6887 73.7841C34.6898 73.7841 34.6909 73.784 34.6918 73.7836C34.6928 73.7832 34.6937 73.7826 34.6945 73.7819C34.6953 73.7811 34.6959 73.7802 34.6963 73.7792C34.6967 73.7783 34.6969 73.7772 34.6968 73.7761C37.1296 70.6961 40.0961 66.34 40.5489 63.2848C40.5638 63.1813 40.6092 63.0846 40.6794 63.007C40.7495 62.9295 40.8412 62.8746 40.9427 62.8494C41.0442 62.8243 41.1509 62.8299 41.2492 62.8657C41.3475 62.9015 41.4329 62.9658 41.4944 63.0503C42.6584 64.6183 44.4609 67.609 44.0648 70.7612C44.0486 70.8662 44.0406 70.9712 44.0244 71.0764C43.992 71.2543 43.9517 71.424 43.9112 71.6018C43.8708 71.7393 43.8384 71.8766 43.79 72.0141C44.3553 71.5424 44.8946 71.0405 45.4057 70.5106C46.5938 69.2902 48.0972 67.4554 48.7439 65.4913C48.7745 65.3866 48.8368 65.2938 48.9223 65.2259C49.0077 65.158 49.1121 65.1182 49.2211 65.1121C49.3301 65.106 49.4383 65.1337 49.5308 65.1916C49.6234 65.2495 49.6957 65.3347 49.7379 65.4354C50.1579 66.47 50.6513 67.9167 50.8209 69.3958C50.8356 69.5285 50.8992 69.6509 50.9994 69.7391C51.0995 69.8273 51.229 69.8749 51.3625 69.8727C51.9849 69.8484 52.6072 69.8323 53.2296 69.8323C78.294 69.8323 98.614 90.1522 98.614 115.209C98.614 115.783 98.6059 116.348 98.5815 116.914C98.578 117 98.5955 117.086 98.6326 117.164C98.6698 117.242 98.7254 117.31 98.7946 117.362C98.8639 117.414 98.9447 117.448 99.0301 117.461C99.1155 117.475 99.2029 117.467 99.2847 117.439C101.984 116.494 105.387 114.214 107.44 108.791C111.28 98.6875 111.684 95.8586 110.471 87.9779C109.259 80.0971 115.119 80.5019 116.331 83.1283C117.543 85.7547 120.171 98.4849 115.322 107.78Z" fill="#1D4ED8"/>
<path d="M35.5038 119.189C35.3492 119.188 35.199 119.137 35.0767 119.043C34.9543 118.948 34.8667 118.816 34.8274 118.666C34.5227 117.335 34.4572 115.96 34.6341 114.606C35.0321 111.663 36.6337 109.5 39.2659 108.35C40.9859 107.599 42.6119 107.556 44.0984 108.222C47.1452 109.588 48.4423 113.46 48.4961 113.624C48.5482 113.798 48.53 113.987 48.4454 114.148C48.3608 114.31 48.2164 114.432 48.0431 114.489C47.8697 114.546 47.6811 114.532 47.5173 114.452C47.3535 114.372 47.2274 114.231 47.1661 114.059C47.155 114.026 46.0013 110.605 43.5216 109.497C42.4114 109.002 41.1683 109.047 39.8267 109.633C37.6487 110.585 36.3705 112.307 36.0278 114.752C35.8712 115.939 35.9236 117.144 36.1826 118.313C36.2292 118.492 36.2026 118.683 36.1087 118.843C36.0147 119.003 35.8611 119.12 35.6814 119.167C35.6234 119.181 35.5637 119.189 35.5038 119.189Z" fill="white"/>
<path d="M56.6055 112.778C56.4589 112.778 56.3159 112.732 56.1969 112.646C56.0779 112.561 55.9888 112.44 55.9422 112.301C55.5515 110.998 55.3969 109.636 55.4858 108.278C55.6923 105.328 57.1505 103.074 59.7029 101.76C61.3739 100.901 62.996 100.752 64.5249 101.322C67.6469 102.484 69.19 106.239 69.2541 106.398C69.3214 106.57 69.3182 106.762 69.2451 106.931C69.1721 107.1 69.0351 107.234 68.864 107.303C68.6928 107.372 68.5014 107.371 68.3313 107.299C68.1612 107.228 68.0262 107.092 67.9556 106.922C67.9416 106.889 66.5725 103.574 64.0313 102.632C62.8883 102.209 61.6479 102.334 60.3437 103.005C58.2323 104.092 57.0689 105.884 56.8857 108.334C56.8065 109.522 56.9368 110.715 57.2705 111.858C57.3052 111.963 57.3145 112.075 57.2976 112.184C57.2807 112.294 57.238 112.398 57.1732 112.488C57.1083 112.578 57.0231 112.651 56.9244 112.701C56.8258 112.752 56.7166 112.778 56.6058 112.778H56.6055Z" fill="white"/>
<path d="M54.8244 127.423C50.0601 127.423 46.4273 124.252 46.2455 124.091C46.1767 124.03 46.1207 123.956 46.0805 123.873C46.0404 123.79 46.0169 123.701 46.0115 123.609C46.006 123.517 46.0187 123.425 46.0488 123.338C46.0789 123.251 46.1258 123.171 46.1868 123.103C46.2479 123.034 46.3218 122.978 46.4045 122.938C46.4872 122.898 46.577 122.874 46.6688 122.869C46.7606 122.863 46.8525 122.876 46.9394 122.906C47.0263 122.936 47.1063 122.983 47.1751 123.044C47.2228 123.086 52.0201 127.256 57.4213 125.646C62.7973 124.044 64.2716 117.218 64.286 117.149C64.3253 116.969 64.4339 116.812 64.5884 116.711C64.7428 116.611 64.9307 116.575 65.1111 116.612C65.2916 116.65 65.4502 116.756 65.5524 116.91C65.6546 117.063 65.6923 117.25 65.6572 117.431C65.3244 118.845 64.8031 120.208 64.1073 121.483C62.5703 124.316 60.3973 126.22 57.8213 126.987C56.8487 127.277 55.8392 127.424 54.8244 127.423V127.423Z" fill="white"/>
<path d="M205.72 96.2658C205.66 97.7857 205.505 99.3004 205.257 100.801C201.882 121.445 182.421 135.438 161.777 132.063C141.141 128.69 127.139 109.227 130.515 88.5826C130.73 87.2666 131.014 85.9786 131.35 84.7225C116.04 74.3247 116.934 54.2744 119.869 52.0514C122.833 49.8005 126.069 51.6972 125.731 57.9237C125.383 66.9659 130.95 74.4437 134.038 77.7008C141.267 63.2888 157.244 54.5819 173.995 57.3203C190.252 59.9777 202.379 72.6153 205.156 87.9423C208.187 86.8406 213.538 83.6613 217.874 74.6241C218.479 72.823 218.647 71.499 218.679 70.7015C218.701 69.9566 218.991 69.2448 219.498 68.6979C220.446 67.7062 222.125 66.6539 224.293 68.2697C224.787 68.6384 225.184 69.12 225.453 69.6741C225.721 70.2281 225.853 70.8385 225.837 71.454C225.701 76.3382 221.793 88.2217 205.72 96.2658Z" fill="#3B82F6"/>
<path d="M183.199 102.961C182.243 108.808 174.202 112.359 165.244 110.894C156.278 109.429 149.786 103.502 150.741 97.6557C150.923 96.5668 151.349 95.5331 151.986 94.6317C152.16 94.3876 152.421 94.2196 152.716 94.1623C153.01 94.105 153.315 94.1628 153.568 94.3237C156.777 96.3331 161.857 98.1051 167.719 99.0632C173.113 99.9452 178.105 99.9584 181.737 99.2692C182.033 99.2124 182.339 99.2717 182.593 99.4347C182.846 99.5976 183.027 99.8517 183.098 100.144C183.317 101.068 183.351 102.025 183.199 102.961Z" fill="white"/>
<path d="M166.201 91.36C166.099 91.3601 165.999 91.3382 165.907 91.2956C165.814 91.2531 165.733 91.191 165.667 91.1136C165.601 91.0363 165.553 90.9455 165.526 90.8477C165.498 90.7498 165.493 90.6472 165.509 90.547C165.744 89.1097 165.398 87.6379 164.548 86.4554C163.698 85.2729 162.413 84.4766 160.975 84.2417C159.538 84.0067 158.066 84.3524 156.884 85.2026C155.701 86.0528 154.905 87.338 154.67 88.7753C154.64 88.9585 154.539 89.1223 154.388 89.2307C154.237 89.3391 154.05 89.3831 153.866 89.3532C153.683 89.3232 153.519 89.2217 153.411 89.0709C153.303 88.9202 153.259 88.7326 153.288 88.5494C153.583 86.7456 154.583 85.1328 156.067 84.0658C157.551 82.9989 159.398 82.5651 161.201 82.8599C163.005 83.1548 164.618 84.1541 165.685 85.6381C166.752 87.122 167.186 88.9691 166.891 90.7728C166.864 90.9366 166.78 91.0855 166.654 91.1931C166.527 91.3006 166.367 91.3598 166.201 91.36V91.36Z" fill="white"/>
<path d="M182.992 94.1051C182.891 94.105 182.791 94.0829 182.699 94.0402C182.606 93.9976 182.525 93.9355 182.459 93.8582C182.393 93.7808 182.345 93.6902 182.318 93.5924C182.29 93.4947 182.285 93.3922 182.301 93.292C182.53 91.8572 182.181 90.3902 181.331 89.2121C180.48 88.0341 179.198 87.241 177.764 87.0066C176.33 86.7722 174.862 87.1156 173.681 87.9616C172.499 88.8076 171.702 90.0873 171.462 91.5203C171.447 91.6112 171.415 91.6984 171.367 91.7768C171.318 91.8553 171.255 91.9234 171.18 91.9773C171.106 92.0312 171.021 92.0698 170.931 92.0909C170.842 92.1121 170.749 92.1153 170.658 92.1004C170.567 92.0856 170.48 92.0529 170.402 92.0043C170.323 91.9558 170.255 91.8922 170.202 91.8173C170.148 91.7425 170.11 91.6577 170.089 91.568C170.068 91.4783 170.065 91.3853 170.08 91.2944C170.38 89.4953 171.381 87.8884 172.864 86.8259C174.346 85.7634 176.19 85.332 177.99 85.6262C179.79 85.9205 181.4 86.9164 182.467 88.3957C183.534 89.8749 183.971 91.7169 183.682 93.5179C183.656 93.6817 183.572 93.8307 183.445 93.9382C183.319 94.0458 183.158 94.1049 182.992 94.1051Z" fill="white"/>
</svg>
