<svg width="250" height="201" viewBox="0 0 250 201" fill="none" xmlns="http://www.w3.org/2000/svg">
<path fill-rule="evenodd" clip-rule="evenodd" d="M143.891 200.736C173.821 200.736 200.085 178.473 185.335 148.234C170.585 117.995 225.391 118.971 241.491 98.0721C261.125 72.5846 255.439 -35.6056 129.397 30.3524C109.207 40.9181 57.3536 19.4828 40.1536 30.1186C19.9075 42.6381 -8.57753 68.2738 19.9075 94.5339C33.9387 107.469 -16.3664 141.043 5.66626 171.117C27.1646 200.461 42.2345 172.487 74.9654 178.473C107.696 184.458 121.663 200.736 143.891 200.736Z" fill="#93C5FD"/>
<path d="M109.153 148.127C109.153 148.127 116.044 144.885 118.617 142.63C121.19 140.375 124.388 134.771 124.388 134.771C124.388 134.771 159.522 160.145 182.43 156.525C187.708 155.691 197.993 152.183 198.649 146.001C200.44 129.122 175.661 124.808 181.073 116.248C184.377 111.023 194.641 118.8 194.641 118.8L237.21 139.738C237.21 139.738 222.503 175.99 186.814 177.443C142.912 179.23 109.153 148.127 109.153 148.127Z" fill="white"/>
<path fill-rule="evenodd" clip-rule="evenodd" d="M75.402 6.15793C75.0024 6.00107 72.8567 3.37375 70.1327 2.89556C68.8948 2.67827 70.0183 4.25448 68.6559 4.26866C64.5985 4.31091 58.0047 3.54862 56.7832 4.26866C55.8754 4.8021 57.8748 6.66568 56.7832 6.75124C46.4851 7.55844 30.7745 17.8408 27.3659 22.8293C26.2811 24.4168 35.0544 21.7233 33.6566 22.5082C32.0877 23.3891 30.3477 29.1571 29.3073 33.6119C28.5871 36.6796 28.1336 40.6276 27.9735 44.9224C27.8401 48.6303 27.8935 49.2438 28.427 51.2712C29.0405 53.5386 29.5207 54.2055 30.3477 53.8854C30.6411 53.7787 30.7745 53.3786 30.7745 52.6317C30.7745 52.0448 31.0946 50.2842 31.4947 48.7103L32.1883 45.8827L32.4817 47.0564C32.8552 48.4169 35.0426 52.6317 37.0166 55.6994C37.123 55.8622 37.5811 55.6551 37.9941 54.6567C38.3705 53.7469 38.2178 52.2935 38.8572 50.7358C40.3137 47.1875 43.1736 42.5741 46.4851 38.8813C51.3792 33.4236 53.0029 27.1074 57.5906 22.0371C66.1522 12.5751 76.8976 6.74511 75.402 6.15793Z" fill="white"/>
<path fill-rule="evenodd" clip-rule="evenodd" d="M33.7784 23.7949C32.405 24.8993 30.3663 33.8572 30.3313 34.007C29.6111 37.0747 28.9168 47.7277 29.6265 49.7446C30.3362 51.7615 32.3233 44.491 32.3233 44.491C32.3233 44.491 35.3269 52.2904 37.9809 54.4288C38.0943 54.5201 34.8263 44.7793 33.7784 39.0928C32.395 31.5864 34.56 23.1664 33.7784 23.7949Z" fill="#F1F5F9"/>
<path fill-rule="evenodd" clip-rule="evenodd" d="M84.9685 180.683C87.5294 180.122 91.8503 178.172 93.5048 177.505C95.1592 176.837 100.2 169.719 102.014 161.69C103.321 155.768 103.988 147.338 103.241 145.924C103.131 145.724 102.728 141.89 103.802 143.142C106.189 145.924 109.023 150.292 117.966 142.465C120.402 140.334 123.63 137.583 122.78 135.15C120.402 128.345 110.092 114.643 108.521 113.605C106.641 112.364 97.1432 113.419 83.0081 109.246C66.9778 104.515 60.3027 90.5825 54.0296 92.3962C48.9564 93.8629 36.8016 102.876 33.7511 108.584C19.3497 135.531 36.8016 154.413 40.776 159.836L44.6349 161.503L44.7683 164.944L44.955 167.105C45.3018 171.239 45.4352 171.613 47.3025 173C51.9707 176.548 61.1739 179.856 69.4967 181.029C73.3646 181.563 81.7675 181.376 84.9685 180.683Z" fill="white"/>
<path fill-rule="evenodd" clip-rule="evenodd" d="M46.1528 163.683L46.3395 165.844C46.6863 169.978 46.8197 170.352 48.687 171.739C51.4409 173.832 55.7731 175.841 60.5717 177.378C63.9073 178.447 67.4682 179.287 70.8811 179.768C74.7491 180.302 83.1519 180.115 86.353 179.421C87.9353 179.079 74.9204 168.854 67.2532 171.739C61.3651 173.954 47.4872 157.054 53.1298 152.639C59.4595 147.686 47.8607 128.15 47.4872 123.909C47.1137 119.667 45.643 118.654 45.6001 118.803C45.5572 118.952 45.5572 119.459 45.6726 120.682C46.1703 125.952 46.1528 163.683 46.1528 163.683Z" fill="#F1F5F9"/>
<path fill-rule="evenodd" clip-rule="evenodd" d="M44.7629 122.699C45.3229 122.59 45.8653 122.956 45.9743 123.516C47.9876 133.859 56.5036 140.861 71.7314 144.523C87.0498 148.207 97.4839 148.008 102.982 144.076C103.446 143.744 103.1 146.586 102.76 146.804C99.1741 149.104 86.9827 152.535 72.434 149.434C53.8321 145.469 45.0979 129.827 43.9462 123.91C43.8372 123.35 44.2028 122.808 44.7629 122.699Z" fill="#FDE047"/>
<path fill-rule="evenodd" clip-rule="evenodd" d="M37.0058 104.034C37.501 103.751 55.9769 124.926 81.3321 129.719C106.687 134.512 112.826 131.463 113.813 124.926C113.898 124.362 114.425 123.973 114.989 124.058C115.553 124.144 115.941 124.67 115.856 125.234C114.605 133.52 102.873 135.491 80.9846 131.755C59.371 128.067 44.5527 119.304 36.6222 105.444C36.3388 104.949 36.5106 104.317 37.0058 104.034Z" fill="#FDE047"/>
<path fill-rule="evenodd" clip-rule="evenodd" d="M143.426 102.862C142.732 102.621 141.985 102.088 141.505 101.474L140.705 100.487L143.533 97.6864C147.881 93.4183 151.215 89.0435 154.096 83.8418C155.056 82.1078 157.484 76.3192 157.484 75.759C157.484 75.5723 157.777 74.8254 158.124 74.0518C158.658 72.9314 159.058 72.5046 160.205 71.8644C161.565 71.0641 163.113 70.7974 163.779 71.2508C165.06 72.1045 165.06 74.7987 163.779 79.4403C162.366 84.5353 160.472 88.1899 156.55 93.445C155.937 94.2453 154.79 95.8191 153.963 96.9128C151.749 99.8472 150.308 101.261 148.361 102.355C146.44 103.422 145.32 103.555 143.426 102.862ZM162.579 100.461L164.5 101.314C164.898 101.498 169.291 103.609 174.569 106.145C183.077 110.233 193.884 115.426 193.95 115.426C194.056 115.426 194.557 114.268 194.67 112.918C194.937 110.011 195.924 106.063 197.071 103.315C197.604 102.088 198.031 100.554 198.031 100.421C198.031 100.36 197.597 100.185 196.887 99.8987C196.042 99.5578 194.805 99.059 193.443 98.4066C186.72 95.1789 173.569 88.59 171.942 87.603C170.342 86.6693 170.021 86.5893 170.021 87.2029C170.021 88.0031 168.394 91.711 167.141 93.7117C166.474 94.8054 165.167 96.7794 164.233 98.0865L162.579 100.461ZM193.496 110.624C194.261 111.067 192.936 111.718 192.616 111.825C190.731 111.985 188.512 111.63 186.694 110.571C185.743 109.897 178.258 105.738 173.293 102.98C171.023 101.718 169.279 100.75 168.928 100.541C167.807 99.8738 166.74 99.1536 166.554 98.9402C165.993 98.2199 166.527 97.8998 168.101 98.0332C169.047 98.1134 191.844 109.667 193.496 110.624ZM92.3454 177.805L92.3455 177.805L92.346 177.804L92.3502 177.802L92.3559 177.8C92.8487 177.592 93.273 177.413 93.5957 177.283C95.2502 176.616 100.291 169.497 102.105 161.468C103.412 155.546 104.079 147.116 103.332 145.703C102.882 144.884 105.558 147.631 107.55 149.676C108.154 150.296 108.695 150.852 109.068 151.225C120.698 162.775 138.011 172.058 155.99 176.406C164.953 178.594 171.329 179.367 179.892 179.367C194.27 179.367 205.607 176.54 215.904 170.324C216.393 170.029 216.851 169.758 217.288 169.499C220.877 167.374 223.016 166.108 228.868 159.521C235.433 152.131 241.272 134.979 243.22 129.057C244.073 126.389 246.154 115.779 246.154 113.132C246.154 109.997 245.06 108.517 243.566 106.996C240.925 104.409 237.351 103.475 234.39 104.595L233.003 105.129L232.576 103.715C231.962 101.581 230.682 99.8738 228.708 98.5934C225.774 96.6461 225.347 96.5127 222.706 96.5127C220.652 96.5127 220.092 96.6194 218.785 97.233L217.264 97.9265L216.944 96.9662C216.331 94.9922 214.273 92.2404 212.676 91.4443C211.26 90.7383 208.809 90.6736 207.101 90.9908C203.366 91.6844 200.699 93.4183 199.605 95.8458C199.285 96.5927 198.885 97.1796 198.725 97.1796C198.591 97.1796 193.336 95.7119 187.067 92.9377C186.015 92.4704 185.026 92.0322 184.097 91.6204L184.084 91.6145L184.084 91.6144C172.827 86.6249 170.387 85.5434 170.608 84.1886C170.795 83.0415 170.742 82.4013 170.422 81.4143C169.861 79.7604 169.221 79.3069 167.407 79.3069C166.539 79.3069 166.194 79.3069 166.092 79.1494C166.025 79.0455 166.063 78.873 166.127 78.5867C166.981 74.5053 166.954 72.1578 166.047 70.664C165.433 69.677 164.713 69.2768 163.059 69.0368C162.099 68.9034 161.645 68.9834 160.578 69.5703C159.858 69.9437 159.245 70.2105 159.191 70.1572C159.138 70.1038 159.325 68.6366 159.618 66.9027C161.805 54.0717 160.116 43.0165 154.54 31.2792C154.509 31.2138 154.475 31.1414 154.438 31.0623L154.354 30.8821C152.659 27.2434 145.844 12.6116 126.353 5.22857C125.471 4.89448 124.637 4.57144 123.835 4.26098L123.834 4.26071C117.195 1.69084 112.781 -0.0175923 102.132 0.000136685C90.1959 0.0200081 86.1532 1.70738 78.2839 5.30859C77.1902 5.81543 76.2299 6.10887 76.1499 6.00216C76.0698 5.86878 75.563 5.54868 75.0562 5.28192C74.5493 5.01516 73.4556 4.34827 72.6553 3.81476C70.3612 2.26757 68.9474 1.62735 68.2272 1.78741C67.4002 2.00081 67.4002 2.69438 68.2272 3.01449C68.574 3.14787 68.9741 3.60135 69.1342 4.05484C69.4809 5.01516 69.8811 5.12187 70.1212 4.3216C70.2279 4.02816 70.3879 3.81476 70.4679 3.86811C70.4983 3.88328 70.5998 3.93082 70.7548 4.00337L70.7549 4.00343C71.1449 4.18597 71.8728 4.52673 72.6553 4.90846C73.749 5.44197 74.9495 6.00216 75.2696 6.13554C75.8564 6.34895 75.6697 6.509 73.1355 8.00284C63.2388 13.8181 55.1828 22.8612 50.6746 33.158C49.981 34.7052 49.3675 35.6655 48.7273 36.199C47.1 37.5595 43.899 41.4275 43.152 42.948C42.7519 43.7749 41.8983 45.0553 41.2314 45.8023C40.5912 46.5492 39.8976 47.5095 39.6575 47.9096C39.4441 48.3365 39.2307 48.6299 39.1507 48.5765C39.0974 48.4965 39.1774 47.1894 39.3641 45.6689C39.7642 42.121 39.7642 41.1874 39.4441 41.1073C38.964 40.974 38.2704 42.8413 37.977 45.162C37.7636 46.5759 37.7102 48.7099 37.8436 50.8973L38.0036 54.3652L36.1097 51.2975C35.4573 50.27 34.8149 49.2424 34.3592 48.5137L34.3586 48.5127C34.0694 48.05 33.8554 47.7079 33.7622 47.5629C33.0686 46.5492 32.6685 45.0287 32.9619 44.5218C33.122 44.2284 33.0953 44.095 32.8286 44.095C32.2684 44.095 31.1747 45.8823 30.4544 47.9363C30.1076 48.8966 29.7609 49.6969 29.6542 49.6969C29.254 49.6969 29.4408 40.147 29.8676 37.0793C30.7479 31.0239 33.0686 23.5548 34.109 23.5548C34.3224 23.5548 34.5091 23.448 34.5091 23.288C34.5091 22.8078 33.8156 22.9946 33.2554 23.6081C32.0016 24.9686 30.3477 29.1566 29.3074 33.6115C28.5871 36.6792 28.1336 40.6272 27.9736 44.922C27.8402 48.6299 27.8936 49.2434 28.4271 51.2708C29.0406 53.5382 29.5208 54.2051 30.3477 53.885C30.6412 53.7783 30.7745 53.3782 30.7745 52.6312C30.7745 52.0444 31.0946 50.2838 31.4948 48.7099L32.1884 45.8823L32.4818 47.056C32.8552 48.4165 35.0426 52.6312 37.0166 55.6989C38.3771 57.7796 38.4038 57.913 38.8573 61.1674C39.0974 63.0081 39.8443 67.4851 41.5782 74.3719C43.1102 80.4569 51.7229 86.4931 53.8733 88.0003C54.1567 88.1989 54.3279 88.3189 54.3558 88.35C54.6226 88.6434 54.996 88.8034 55.2095 88.7234C55.4495 88.6434 55.5829 88.7501 55.5829 89.0435C55.5829 89.3103 55.7696 89.6571 55.983 89.8171C56.2498 90.0038 56.4365 90.7241 56.4899 91.9778C56.6233 94.4854 58.4906 99.287 59.931 100.861C60.8647 101.875 62.812 102.301 64.9728 101.928C66.3866 101.714 66.7867 101.554 66.6533 101.234C66.5733 101.021 67.0801 101.288 67.7737 101.821C75.8831 108.01 84.0992 111.718 93.329 113.318C96.9035 113.932 102.826 114.279 106.053 114.039C108.908 113.852 108.908 113.852 108.774 114.412C108.587 115.159 108.828 115.612 112.749 122.255C115.87 127.51 116.137 127.857 119.605 131.404C126.967 139.007 134.996 144.902 144.093 149.464C152.656 153.732 166.327 157.28 178.825 158.4C191.322 159.521 200.298 148.05 200.272 145.116C200.218 141.088 199.658 138.447 198.298 135.886C196.964 133.405 196.084 132.552 192.082 129.884C187.627 126.923 184.88 124.495 183.066 121.908C181.919 120.281 181.492 118.44 181.492 117.453C181.492 116.813 182.319 115.372 183.546 115.079C184.666 114.786 184.88 114.812 186.134 115.426C186.881 115.773 188.828 116.68 190.428 117.453C192.056 118.2 193.63 118.947 193.95 119.107C194.893 119.369 195.292 121.217 195.509 122.218C195.557 122.441 195.596 122.623 195.63 122.735C196.004 124.122 197.771 125.913 198.911 126.523C200.914 127.594 205.847 127.737 207.208 126.27C207.555 125.896 208.704 125.437 208.941 125.576C209.178 125.715 210.035 126.87 210.035 127.803C210.062 129.404 210.889 130.871 212.649 132.338C215.984 135.112 218.571 135.779 221.185 134.552C222.546 133.912 223.661 133.662 223.661 133.662C223.661 133.662 224.773 135.081 224.84 135.566C225.364 139.356 230.975 140.945 232.469 141.105C232.812 141.139 233.478 140.993 234.155 140.844L234.155 140.844C235.06 140.645 235.983 140.442 236.177 140.661C236.558 141.091 229.802 152.265 228.868 153.679C219.985 167.017 202.699 175.179 181.545 176.033C167.807 176.593 150.922 172.752 136.277 165.763C126.914 161.255 118.618 155.733 109.735 147.997C108.187 146.663 106.4 145.142 105.76 144.609C105.12 144.102 103.599 142.368 102.425 140.768C100.451 138.1 99.331 137.14 99.331 138.047C99.331 138.447 100.611 140.901 102.079 143.329C102.665 144.289 103.039 144.956 102.906 144.849C102.772 144.742 102.345 146.663 101.945 149.117C100.638 156.986 98.4774 164.749 96.29 169.577C95.0896 172.192 92.7879 174.144 92.0943 174.677C89.5335 176.625 85.6997 177.5 80.3913 178.034C73.669 178.7 63.7723 177.207 56.2231 174.379C54.2225 173.632 49.0741 171.471 48.7273 171.231C48.7065 171.21 48.5883 170.443 48.4233 169.372C48.3768 169.07 48.3266 168.744 48.2738 168.404C47.3135 161.815 45.9797 136.446 45.9797 124.709C45.9797 119.854 45.9263 118.787 45.6062 118.787C44.9393 118.787 44.6726 119.427 44.3791 121.721C43.7122 126.95 43.8456 154.239 44.5659 159.974L44.7259 161.281L43.8189 160.774C42.4318 159.974 37.15 154.612 35.3094 152.131C33.7512 150.011 32.825 147.294 32.1321 145.262C31.971 144.789 31.8225 144.354 31.6815 143.971C27.8135 133.248 29.174 121.214 34.5091 110.384C39.044 101.154 44.6192 96.0325 52.782 93.5517C54.1158 93.1516 55.2895 92.7248 55.4229 92.6181C55.9297 92.1379 52.6753 92.378 50.888 92.9382C45.0727 94.7254 38.9906 99.6071 34.8559 105.849C29.0406 114.599 26.4264 127.51 28.267 138.527C28.6938 141.141 30.4278 146.796 30.9079 147.196C30.9504 147.239 31.1698 147.699 31.5017 148.395C32.4192 150.32 34.1961 154.048 35.4695 155.733C37.0166 157.84 41.6849 162.428 43.6322 163.842L44.8593 164.722L45.046 166.883C45.3928 171.018 45.5262 171.391 47.3935 172.778C52.0617 176.326 61.2648 179.634 69.5876 180.808C73.4556 181.341 81.8585 181.155 85.0595 180.461C87.1173 180.011 90.3114 178.663 92.3454 177.805ZM175.223 155.413C159.725 154.052 140.998 146.662 127.447 135.245C121.739 130.417 114.323 121.028 111.388 115.826C110.775 114.759 110.321 114.252 109.788 114.119C109.228 113.959 109.708 113.798 112.002 113.425C121.685 111.771 131.102 107.743 138.704 102.008L139.825 101.181L140.145 101.954C140.865 103.688 143.639 105.449 145.693 105.449C146.52 105.449 149.295 104.195 150.975 103.048L152.122 102.275L153.056 103.208C153.909 104.062 154.069 104.115 155.67 104.115C157.511 104.115 159.725 103.288 160.952 102.115L161.619 101.501L163.513 102.755C164.526 103.475 167.354 105.049 169.781 106.303C173.409 108.17 177.251 110.331 180.905 112.571L181.492 112.945L180.932 113.692C180.345 114.492 179.252 116.013 179.252 118.333C179.252 120.948 181.97 125.644 187.174 128.87C191.262 131.404 198.298 136.389 198.031 143.675C197.999 144.555 197.017 146.743 195.71 148.717C194.857 149.971 192.482 151.838 190.322 152.932C186.64 154.772 180.158 155.839 175.223 155.413ZM32.9886 35.6654C33.7088 35.8254 34.189 36.0655 34.0823 36.1722C33.7355 36.519 31.8949 36.3589 31.4681 35.9321C30.8012 35.2919 30.9612 34.8384 31.8949 34.6517C32.375 34.5717 33.0953 34.1715 33.4954 33.7714C33.8956 33.3713 34.2423 33.1845 34.2423 33.3179C34.2423 33.6647 32.9086 34.8918 32.2417 35.1585C31.8149 35.3453 31.9482 35.4253 32.9886 35.6654ZM43.6055 36.0923C44.3791 35.6654 44.219 35.372 43.3121 35.5054C42.4051 35.6388 42.3517 35.5321 42.9386 34.6251C43.1787 34.2783 43.3121 33.7715 43.2587 33.5047C43.1787 33.1579 42.992 33.318 42.5652 34.1716C42.245 34.7851 41.7916 35.292 41.5782 35.292C40.9113 35.292 40.8579 35.8255 41.4981 36.0656C42.3251 36.4124 42.9653 36.4124 43.6055 36.0923ZM34.3757 21.5271C33.7355 21.6338 31.7348 22.4341 29.9742 23.3144C28.187 24.168 26.6665 24.8883 26.5597 24.8616C23.8388 24.5682 27.6268 20.0333 34.5091 15.3917C41.098 10.9369 45.5528 8.58944 49.6876 7.38904C52.2751 6.64212 55.1827 6.53541 56.0097 7.14896C56.4632 7.49574 56.3031 7.52241 54.3291 7.54909C50.061 7.54909 45.126 9.7365 37.0966 15.0983C32.9352 17.8726 28.1069 21.8472 28.1069 22.4875C28.1069 22.6208 28.8805 22.3541 29.8409 21.9273C31.8949 20.9936 34.0023 20.5135 34.9359 20.7269C35.9229 20.9936 35.7095 21.3404 34.3757 21.5271ZM44.6992 23.8212C47.2067 23.3144 47.3134 23.2877 47.3134 23.021C47.3134 22.8876 46.3531 22.7542 45.1527 22.7009L42.992 22.6208L44.9926 20.3534C46.0863 19.0997 47.3668 17.8459 47.8203 17.5525C48.8073 16.9123 48.8606 16.4588 48.0603 16.192L47.4468 16.0053L48.1137 15.7652C48.4872 15.6318 49.1807 15.5785 49.6609 15.6585C50.3811 15.7652 50.5412 15.7118 50.4612 15.3384C50.3811 14.9649 50.0877 14.8849 48.7806 14.9116C44.966 14.9649 43.3388 15.9786 46.3264 16.4588C47.1534 16.5921 47.8469 16.8055 47.8469 16.9389C47.8469 17.0456 47.7136 17.1523 47.5535 17.1523C47.0467 17.1523 42.7519 21.5005 42.2184 22.5675C41.3914 24.1414 41.8449 24.3814 44.6992 23.8212ZM62.3052 13.4713C61.5316 13.5247 61.3449 13.6581 61.3982 14.0315L61.4064 14.0858V14.0859C61.4364 14.2832 61.4536 14.3965 61.4094 14.4309C61.3497 14.4774 61.178 14.38 60.7746 14.1512L60.7046 14.1115C60.1978 13.8448 60.1444 13.7114 60.4379 13.498C60.6246 13.3379 61.1314 13.0979 61.5316 13.0178L62.2785 12.8311L61.7183 12.2442C61.4249 11.8975 61.2648 11.5774 61.3449 11.4706C61.5583 11.2572 64.1725 11.5507 64.5459 11.8441C64.706 11.9775 64.9461 11.9508 65.1061 11.7908C65.4796 11.4173 65.9864 11.7107 65.9864 12.2976C65.9864 12.6177 65.9064 12.6444 65.6663 12.4043C65.4529 12.1909 65.2662 12.1909 65.0261 12.3776C64.8127 12.5644 64.6526 12.5644 64.5193 12.3509C64.4392 12.2176 63.9324 12.0842 63.3989 12.0842C62.9067 12.0842 62.674 12.0842 62.6265 12.178C62.5839 12.2621 62.6902 12.4217 62.892 12.7244C63.3175 13.3892 63.2923 13.3913 62.3142 13.4706L62.3052 13.4713ZM58.2505 6.37544C58.2505 6.02866 57.9304 5.41512 57.5302 5.01498L56.7833 4.26806L60.7846 4.42812C62.9987 4.53482 65.5062 4.7749 66.3865 5.01498C67.2668 5.22839 68.2805 5.38844 68.654 5.38844C69.2142 5.38844 69.1075 5.28174 68.0671 4.72155C66.2532 3.7879 63.9324 3.33442 59.4775 3.01431C54.1424 2.64085 51.4482 3.14769 51.955 4.48147C52.035 4.74823 52.4618 4.88161 53.1021 4.88161C54.4092 4.88161 56.5432 5.6552 57.2635 6.37544C58.0371 7.14904 58.2505 7.14904 58.2505 6.37544ZM45.2327 77.0128C47.3935 79.7871 50.2478 82.9348 51.5816 84.0019C52.3818 84.6421 53.0754 85.1756 53.1287 85.1756C53.1554 85.1756 52.5686 83.9485 51.8216 82.4547C48.8073 76.4526 47.0467 70.4773 46.2197 63.595C46.033 62.0745 45.7396 60.794 45.4195 60.2605C44.7793 59.1935 44.7793 57.8063 45.4461 56.4992C45.7929 55.8057 45.9797 54.9254 45.9797 53.9651V52.4979L44.6992 53.8317C43.4455 55.1388 42.2451 55.6723 42.2451 54.872C42.2451 54.2852 44.2191 51.4575 45.2594 50.5772C46.0864 49.8837 46.1931 49.6436 46.4598 47.5629C46.6466 46.3091 47.0734 44.0951 47.4201 42.6279C47.7936 41.1607 48.007 39.907 47.9537 39.8536C47.7669 39.6669 41.4981 46.8666 40.6445 49.1634C40.4571 49.6677 39.951 50.5506 39.5508 51.0841L38.8573 51.9746C38.8573 51.9746 39.0727 53.2216 39.3107 54.7887C39.5512 56.372 39.6641 57.4604 39.7646 58.4299C39.899 59.7267 40.0114 60.8106 40.3778 62.5813C40.8046 64.7687 41.2314 66.6627 41.3381 66.7961C41.4181 66.9561 41.7649 68.1832 42.1117 69.5436C42.8586 72.558 44.1124 75.5457 45.2327 77.0128ZM153.483 102.248L152.922 101.688C152.922 101.688 162.22 89.875 163.886 85.5223C165.158 82.2007 165.906 81.2588 166.915 81.2588C167.48 81.2588 167.941 81.3876 168.154 81.7077C168.528 82.2679 168.888 82.9615 168.407 85.3356C167.607 89.1769 166.38 91.7111 162.699 97.1796C161.845 98.4334 160.751 99.8205 160.271 100.301C159.151 101.341 156.63 102.408 155.163 102.648C154.23 102.782 153.963 102.728 153.483 102.248Z" fill="#0F172A"/>
<path d="M227.347 128.342C230.666 119.3 230.164 117.373 229.588 117.185C229.588 117.185 228.321 117.905 227.761 119.426C226.72 122.28 223.159 129.749 221.826 131.083C220.252 132.657 220.252 132.657 218.651 132.657C217.051 132.657 212.435 130.247 211.806 127.871C210.801 124.069 215.13 110.863 215.237 110.116L214.516 109.609C214.036 110.063 207.791 129.002 199.578 124.067C198.638 123.502 196.644 120.84 196.484 119.426C195.595 115.318 199.673 100.953 200.367 98.0023C200.988 95.3613 204.22 92.9102 208.194 92.9102C214.303 92.9102 213.483 98.25 216.219 100.132C217.431 100.965 219.424 99.4537 220.038 99.339C223.48 98.6988 224.798 99.4443 227.321 101.446C229.268 102.992 230.709 106.051 232.295 107.128C233.176 107.727 234.11 106.909 234.417 106.755C235.672 106.125 238.365 106.595 239.111 107.128C240.206 107.606 242.89 110.185 243.314 111.685C245.235 118.484 239.168 133.558 236.878 136.385C233.087 141.066 224.029 137.384 227.347 128.342Z" fill="white"/>
<path fill-rule="evenodd" clip-rule="evenodd" d="M73.9892 103.568C81.2983 108.183 88.8349 111.197 97.4245 112.024C104.2 112.664 113.336 111.784 119.898 109.65C125.42 107.863 132.889 102.911 137.877 98.7234C147.561 90.614 153.669 77.9471 156.337 64.5025C156.71 62.6085 157.28 57.8477 157.253 53.1261C157.253 47.6309 154.835 32.6141 147.507 23.9555C132.394 6.09712 107.551 -1.94757 86.6729 4.92609C79.1413 7.40565 71.1223 11.8981 65.0669 17.7667C57.4377 25.2093 51.8091 35.346 49.5683 45.6962C47.2209 56.6332 50.2745 69.7043 55.583 80.4279C59.8244 88.9641 66.8134 99.0063 73.9892 103.568ZM145.213 71.3316C140.198 86.4034 127.127 97.6605 110.695 101.075C108.187 101.582 106.454 101.769 102.932 101.822C100.451 101.902 97.9706 101.875 97.4638 101.822C85.9666 100.435 77.217 96.1934 69.1609 88.1373C65.6397 84.5894 64.1459 82.6688 61.9585 78.8808C58.5173 72.8788 56.6767 66.7434 56.1165 59.3543C54.1959 34.039 72.3086 12.9386 97.8106 10.7512C107.814 9.89755 118.911 12.9653 127.341 18.9406C130.462 21.1547 136.117 26.7566 137.877 29.3708C138.598 30.4111 145.587 40.6279 146.814 46.4966C148.388 54.1258 147.774 63.6757 145.213 71.3316Z" fill="white"/>
<path fill-rule="evenodd" clip-rule="evenodd" d="M157.263 53.1272C157.263 71.0322 148.793 90.6071 137.863 98.967C132.648 102.956 125.833 107.785 119.898 109.651C111.201 112.385 97.4246 112.025 97.4246 112.025C97.4246 112.025 111.479 110.146 116.687 108.05C131.623 102.04 139.775 92.8132 144.81 83.9604C154.747 66.4856 157.263 52.6922 157.263 53.1272Z" fill="#F1F5F9"/>
<path fill-rule="evenodd" clip-rule="evenodd" d="M97.7305 98.6195C90.6081 97.7125 83.5391 95.1783 77.8305 91.417C74.4426 89.203 69.3209 84.0012 66.8401 80.2933C63.2922 74.9582 60.9448 69.2496 59.7977 63.1142C58.9708 58.6593 58.9974 51.8037 59.8244 47.829C60.678 43.7743 61.7717 40.6799 63.719 36.7586C65.9865 32.2237 68.3873 28.8893 71.9885 25.2881C78.1239 19.1527 85.2463 15.258 93.7292 13.3907C96.4768 12.8038 106.427 12.3237 106.774 12.7772C106.854 12.9105 107.387 13.2573 107.947 13.5508C108.507 13.8709 110.001 14.9912 111.228 16.0849C113.069 17.6855 113.896 18.6992 115.497 21.2067C116.59 22.9139 117.471 24.4611 117.471 24.5945C117.471 24.8879 118.324 25.4214 118.804 25.4214C119.471 25.4214 119.925 23.4208 120.058 19.8996C120.138 17.9522 120.298 16.3517 120.405 16.3517C120.778 16.3517 124.886 18.6191 126.807 19.8996C130.568 22.4071 134.33 25.9283 137.104 29.6095C138.358 31.2634 138.544 31.6902 138.544 32.7039C138.544 33.6375 138.811 34.3578 139.638 35.7983C141.719 39.4262 143.346 43.9877 144.333 49.0294C144.973 52.4172 144.973 58.8194 144.306 62.3672C142.492 72.1305 137.104 81.8405 130.088 88.0026C124.139 93.2043 117.817 96.4054 110.348 97.9793C107.787 98.5395 100.105 98.9129 97.7305 98.6195ZM78.6574 80.3733C78.8975 80.1066 79.0575 79.7064 78.9775 79.5197C78.9535 79.4637 78.6195 79.3066 78.1306 79.0768C76.9909 78.541 75.0094 77.6095 74.1507 76.6387C70.7362 72.7441 69.4825 69.8364 68.7089 63.8344C67.9619 57.9924 68.5894 54.043 69.9359 47.6956C70.5928 44.5992 72.3387 42.0416 73.4248 40.4504C74.1634 39.3684 74.597 38.7332 74.1759 38.6793C73.1355 38.5192 72.9755 38.5992 71.8818 39.6396C69.5343 41.8803 68.4673 43.6676 67.3469 47.1088C65.613 52.4973 65.2779 67.0596 68.7089 73.6244C72.1398 80.1892 78.0439 81.0669 78.6574 80.3733ZM116.59 57.9658C116.137 62.1098 114.216 68.1026 111.975 70.7168C110.935 71.9439 107.116 74.0513 103.893 73.6244C100.779 73.2122 98.344 71.7571 96.2633 68.6361C94.4761 65.9419 93.553 62.6715 92.9289 58.5527C91.8511 51.4403 96.5568 43.1608 98.5841 41.1068C100.638 38.9994 102.105 38.2525 103.973 38.2258C105.787 38.2258 106.96 38.626 108.801 39.9331C112.162 42.2805 117.47 49.9133 116.59 57.9658ZM80.6314 35.9052C81.1649 35.2916 81.2449 34.9982 81.0849 33.8512C80.9782 32.7841 80.7648 32.3573 80.2046 31.9038C79.2176 31.1036 77.9905 31.1036 77.0835 31.9572C76.4433 32.5707 76.3633 32.7841 76.4433 34.2513C76.5233 35.8252 76.5767 35.9319 77.457 36.412C78.6307 37.0522 79.7778 36.8655 80.6314 35.9052ZM97.277 19.4462C92.4754 22.8873 90.3947 24.3011 88.234 25.6349C86.5267 26.702 85.9932 26.7286 85.9932 25.7683C85.9932 25.2615 86.3667 24.7013 87.327 23.821L88.6608 22.5939L86.0732 22.2471C83.1656 21.8737 80.338 21.0734 79.7244 20.4598C78.7108 19.4195 79.5911 19.1794 82.472 19.7129C83.7525 19.9263 86.2333 20.1931 87.9939 20.2464L91.195 20.3798L93.5158 18.6992C98.6108 15.018 103.893 12.9373 106.427 13.5775C108.001 13.951 107.814 14.3778 106.027 14.5912C103.973 14.8313 102.719 15.5248 97.277 19.4462Z" fill="white"/>
<path d="M104.133 69.9699C104.133 69.8365 104.293 69.7031 104.506 69.7031C104.719 69.7031 104.986 69.8365 105.066 69.9699C105.146 70.1299 104.986 70.2366 104.693 70.2366C104.373 70.2366 104.133 70.1299 104.133 69.9699Z" fill="white"/>
<path d="M105.733 69.7321C105.733 69.4386 106.4 69.1719 107.147 69.1719C107.734 69.1986 107.734 69.1986 107.227 69.572C106.64 70.0255 105.733 70.1055 105.733 69.7321Z" fill="white"/>
<path d="M101.598 69.0363C101.518 68.8229 101.412 68.4495 101.332 68.2361C101.252 67.9693 101.385 67.8359 101.732 67.8359C102.025 67.8359 102.265 67.996 102.265 68.2094C102.265 68.4228 102.345 68.7696 102.425 69.0097C102.532 69.3031 102.452 69.4365 102.159 69.4365C101.918 69.4365 101.652 69.2497 101.598 69.0363Z" fill="white"/>
<path d="M103.012 68.3717C102.879 67.5714 103.172 67.3047 104.133 67.3047C104.426 67.3047 104.666 67.5714 104.773 68.0249C104.986 68.7985 104.64 69.172 103.706 69.172C103.279 69.172 103.092 68.9853 103.012 68.3717Z" fill="white"/>
<path d="M100.291 68.5017C99.7844 68.1016 99.7844 68.1016 100.345 68.1016C100.691 68.1016 100.931 68.2616 100.931 68.5017C100.931 68.9819 100.931 68.9819 100.291 68.5017Z" fill="white"/>
<path d="M105.653 68.4786C105.306 68.1318 105.466 67.0915 105.893 66.9314C106.667 66.638 107.014 66.7714 107.174 67.4649C107.28 67.8651 107.334 68.2119 107.28 68.2385C107.067 68.4786 105.813 68.6387 105.653 68.4786Z" fill="white"/>
<path d="M108.027 67.9176C107.947 67.8376 107.867 67.4908 107.867 67.1707C107.867 66.7172 108.081 66.5305 108.721 66.3971C109.281 66.2904 109.628 66.3438 109.788 66.5572C110.055 66.984 110.055 67.5175 109.815 67.6509C109.334 67.9176 108.214 68.0777 108.027 67.9176Z" fill="white"/>
<path d="M99.0642 67.0888C99.0642 66.7687 99.3043 66.5019 99.6511 66.4219C100.345 66.2352 100.318 66.2085 100.451 66.9021C100.505 67.3022 100.371 67.4623 99.8111 67.5156C99.2243 67.5956 99.0642 67.4889 99.0642 67.0888Z" fill="white"/>
<path d="M101.091 67.1158C100.718 66.7157 100.958 65.9688 101.465 65.9688C101.812 65.9688 101.998 66.1555 101.998 66.4756C101.998 66.9824 101.385 67.4092 101.091 67.1158Z" fill="white"/>
<path d="M102.692 66.3178C102.479 65.811 102.932 65.4375 103.813 65.4375C104.213 65.4375 104.399 65.5976 104.399 65.9443C104.399 66.2378 104.159 66.5045 103.813 66.6112C102.932 66.8246 102.879 66.8246 102.692 66.3178Z" fill="white"/>
<path d="M110.401 66.2355C110.481 66.1021 110.615 65.9688 110.695 65.9688C110.775 65.9688 110.748 66.1021 110.668 66.2355C110.588 66.3956 110.455 66.5023 110.375 66.5023C110.295 66.5023 110.321 66.3956 110.401 66.2355Z" fill="white"/>
<path d="M105.093 65.7825C104.88 65.249 105.146 64.9822 106 64.8488C106.48 64.7955 106.693 64.9022 106.747 65.2756C106.934 66.1559 105.413 66.6361 105.093 65.7825Z" fill="white"/>
<path d="M98.6908 65.3275C98.4507 64.4472 98.504 64.3672 99.1976 64.3672C99.5711 64.3672 99.8645 64.4739 99.8645 64.6073C99.8645 64.7406 99.9445 65.0341 100.025 65.2475C100.105 65.5142 99.9445 65.6743 99.491 65.7543C98.9842 65.861 98.7975 65.7543 98.6908 65.3275Z" fill="white"/>
<path d="M107.6 65.0342C107.6 64.554 107.787 64.3406 108.294 64.2072C109.041 64.0205 109.468 64.3939 109.468 65.2476C109.468 65.5944 109.254 65.7011 108.534 65.7011C107.707 65.7011 107.6 65.621 107.6 65.0342Z" fill="white"/>
<path d="M97.8906 65.0369C97.8106 64.8234 97.864 64.6367 97.9973 64.6367C98.1574 64.6367 98.2641 64.8234 98.2641 65.0369C98.2641 65.2503 98.2107 65.437 98.1574 65.437C98.104 65.437 97.9973 65.2503 97.8906 65.0369Z" fill="white"/>
<path d="M100.585 65.2481C100.211 64.9013 100.425 64.1544 100.905 64.021C101.198 63.9409 101.492 63.9676 101.572 64.0477C101.892 64.3411 101.705 65.1147 101.305 65.2747C100.798 65.4615 100.798 65.4615 100.585 65.2481Z" fill="white"/>
<path d="M110.108 65.0627C109.815 64.2891 110.135 63.7022 110.882 63.6222C111.442 63.5422 111.602 63.6489 111.602 64.0757C111.602 64.956 111.308 65.4361 110.775 65.4361C110.481 65.4361 110.188 65.2761 110.108 65.0627Z" fill="white"/>
<path d="M102.452 64.7171C102.132 64.4237 102.239 63.8902 102.692 63.7301C103.199 63.5434 104.266 64.0769 103.973 64.3704C103.599 64.6905 102.639 64.9305 102.452 64.7171Z" fill="white"/>
<path d="M104.773 64.0488C104.533 63.6754 105.386 63.0352 106.08 63.0352C106.4 63.0352 106.533 63.1952 106.48 63.4886C106.373 64.0222 105.013 64.449 104.773 64.0488Z" fill="white"/>
<path d="M97.4638 63.8632C97.4638 63.7299 97.3837 63.4364 97.3037 63.1963C97.2237 62.9563 97.2504 62.7695 97.4104 62.7695C97.7572 62.7695 98.024 63.7832 97.7038 63.9966C97.5705 64.0766 97.4638 64.0233 97.4638 63.8632Z" fill="white"/>
<path d="M98.184 63.2481C98.0239 62.6612 98.344 62.2344 98.9576 62.2344C99.3044 62.2344 99.6512 63.2747 99.4377 63.6215C99.1443 64.075 98.3174 63.8082 98.184 63.2481Z" fill="white"/>
<path d="M100.051 63.3799C99.6512 62.9797 99.8913 62.0194 100.425 61.886C100.825 61.7793 101.038 61.9127 101.252 62.3929C101.412 62.7397 101.492 63.0864 101.438 63.1398C101.172 63.3799 100.211 63.5666 100.051 63.3799Z" fill="white"/>
<path d="M107.254 63.3821C106.907 63.0354 107.067 62.822 107.867 62.5285C108.534 62.3151 108.721 62.3418 108.854 62.6619C109.094 63.3021 107.761 63.9157 107.254 63.3821Z" fill="white"/>
<path d="M109.601 62.769C109.334 62.3422 109.708 61.9688 110.401 61.9688C111.228 61.9688 111.468 62.6623 110.722 62.8757C109.921 63.0891 109.788 63.0625 109.601 62.769Z" fill="white"/>
<path d="M111.869 62.1275C111.869 61.7274 112.349 61.3006 112.562 61.514C112.749 61.7007 112.375 62.501 112.109 62.501C111.975 62.501 111.869 62.3409 111.869 62.1275Z" fill="white"/>
<path d="M97.1169 61.7823C97.0102 61.7023 96.9302 61.3555 96.9568 61.0621C96.9568 60.5552 96.9835 60.5552 97.2236 61.1421C97.4903 61.7823 97.437 62.1024 97.1169 61.7823Z" fill="white"/>
<path d="M97.6237 61.3809C97.3837 60.4472 97.4103 60.3672 98.1039 60.3672C98.8775 60.3672 99.3577 61.3542 98.7708 61.7276C98.1573 62.1011 97.8105 61.9944 97.6237 61.3809Z" fill="white"/>
<path d="M106.8 61.9157C106.8 61.8357 106.934 61.4089 107.094 60.9287C107.467 59.8617 108.294 59.8083 108.481 60.8487C108.561 61.2488 108.588 61.5956 108.561 61.6223C108.428 61.7823 106.8 62.0224 106.8 61.9157Z" fill="white"/>
<path d="M99.5178 61.2485C99.4111 61.1685 99.3311 60.8484 99.3311 60.555C99.3311 60.1282 99.4111 60.1015 99.7312 60.3682C99.9446 60.555 100.131 60.8751 100.131 61.0618C100.131 61.4619 99.8112 61.5686 99.5178 61.2485Z" fill="white"/>
<path d="M109.121 60.7131C108.961 59.8861 109.308 59.5127 110.135 59.6194C110.535 59.6727 110.668 59.9128 110.668 60.4997C110.668 61.1666 110.562 61.3266 109.975 61.38C109.388 61.46 109.254 61.3266 109.121 60.7131Z" fill="white"/>
<path d="M111.735 60.8205C111.388 59.7535 111.495 59.4333 112.215 59.3533C112.856 59.2733 112.936 59.3533 112.936 60.0469C112.936 60.6338 112.776 60.8738 112.375 60.9805C112.082 61.0606 111.789 60.9805 111.735 60.8205Z" fill="white"/>
<path d="M96.7168 59.2995C96.7168 58.7926 96.7701 58.5792 96.8502 58.846C96.9035 59.0861 96.9035 59.5129 96.8502 59.7796C96.7701 60.0197 96.7168 59.8063 96.7168 59.2995Z" fill="white"/>
<path d="M97.3838 59.6478C97.037 59.3277 97.1971 58.2874 97.6239 58.1273C98.2374 57.8872 98.5308 58.1807 98.5308 59.061C98.5308 59.6211 98.3975 59.8345 98.0507 59.8345C97.7839 59.8345 97.4638 59.7545 97.3838 59.6478Z" fill="white"/>
<path d="M98.9841 58.928C98.8774 58.5279 98.824 58.101 98.9307 58.021C99.1975 57.7543 99.3575 58.1811 99.2775 58.9547L99.1975 59.7016L98.9841 58.928Z" fill="white"/>
<path d="M107.6 58.7416C107.6 58.4482 107.734 58.2882 107.867 58.3682C108.027 58.4482 108.134 58.715 108.134 58.9284C108.134 59.1418 108.027 59.3018 107.867 59.3018C107.734 59.3018 107.6 59.0618 107.6 58.7416Z" fill="white"/>
<path d="M108.801 59.0863C108.427 58.6862 108.721 57.9659 109.334 57.8059C110.108 57.6192 110.135 57.6192 110.375 58.3928C110.535 58.8729 110.428 58.9796 109.735 59.0863C109.308 59.1664 108.881 59.1397 108.801 59.0863Z" fill="white"/>
<path d="M111.255 58.5782C110.962 58.3114 111.042 57.4311 111.335 57.4311C111.495 57.4311 111.602 57.3244 111.602 57.1644C111.602 57.031 111.442 56.8976 111.228 56.8976C110.775 56.8976 110.401 55.5905 110.775 55.217C111.255 54.7369 111.788 55.2437 112.109 56.5508C112.295 57.2444 112.482 58.0447 112.562 58.3114C112.669 58.6582 112.562 58.7649 112.055 58.7649C111.708 58.7649 111.335 58.6849 111.255 58.5782Z" fill="white"/>
<path d="M112.695 57.1667C112.509 56.3664 112.029 54.7658 111.682 53.5921C111.148 51.8849 111.095 51.4581 111.388 51.2713C111.575 51.138 111.815 51.0312 111.895 51.0312C112.189 51.0312 113.256 56.4998 113.149 57.5668L113.069 58.6338L112.695 57.1667Z" fill="white"/>
<path d="M96.45 57.0326C96.45 56.6057 96.5033 56.4457 96.5833 56.7124C96.6367 56.9525 96.6367 57.326 96.5833 57.5127C96.5033 57.6728 96.45 57.486 96.45 57.0326Z" fill="white"/>
<path d="M96.9836 56.9787C97.0903 56.0451 97.8639 55.8317 98.0773 56.6853C98.264 57.3789 98.3174 57.2988 97.5171 57.5656C96.9569 57.7257 96.9036 57.6723 96.9836 56.9787Z" fill="white"/>
<path d="M108.241 56.7374C108.027 55.9638 108.481 55.5103 109.334 55.617C109.975 55.697 110.215 56.8441 109.681 57.1909C109.014 57.6177 108.401 57.431 108.241 56.7374Z" fill="white"/>
<path d="M98.5308 56.5256C98.5308 56.0721 98.6641 55.832 98.9576 55.832C99.2243 55.832 99.331 56.0188 99.2777 56.4189C99.1443 57.2725 98.5308 57.3525 98.5308 56.5256Z" fill="white"/>
<path d="M96.1566 55.4056C96.1566 55.1122 96.2366 55.0322 96.3167 55.2456C96.3967 55.4323 96.37 55.6724 96.29 55.7524C96.21 55.8591 96.1299 55.6991 96.1566 55.4056Z" fill="white"/>
<path d="M96.6636 55.3258C96.6636 54.9257 96.8236 54.7656 97.2238 54.7656C97.5972 54.7656 97.7306 54.899 97.6772 55.2191C97.5439 55.9127 96.6636 55.9927 96.6636 55.3258Z" fill="white"/>
<path d="M98.1306 55.0873C97.9439 54.6071 97.9439 54.6071 98.7442 54.3937C99.2243 54.2336 99.331 54.3137 99.331 54.7138C99.331 55.354 98.3707 55.6741 98.1306 55.0873Z" fill="white"/>
<path d="M107.787 54.7129C107.601 54.046 107.947 53.6992 108.881 53.6992C109.334 53.6992 109.468 53.8593 109.468 54.3661C109.468 54.7662 109.308 55.033 109.094 55.033C108.881 55.033 108.534 55.113 108.321 55.1931C108.081 55.2731 107.894 55.113 107.787 54.7129Z" fill="white"/>
<path d="M110.108 54.0977C109.895 53.5642 110.215 53.1641 110.828 53.1641C111.202 53.1641 111.335 53.3508 111.335 53.831C111.335 54.3111 111.202 54.4978 110.802 54.4978C110.508 54.4978 110.188 54.3111 110.108 54.0977Z" fill="white"/>
<path d="M96.3967 53.7268C96.3967 53.1666 97.0103 52.5264 97.277 52.8198C97.3837 52.8998 97.4638 53.2733 97.4638 53.6201C97.4638 54.0469 97.3037 54.2336 96.9302 54.2336C96.5835 54.2336 96.3967 54.0469 96.3967 53.7268Z" fill="white"/>
<path d="M97.8638 53.4034C97.6504 52.7365 97.8904 52.443 98.7974 52.3097C99.6244 52.203 99.8911 53.0833 99.1709 53.6168C98.4773 54.1236 98.0505 54.0436 97.8638 53.4034Z" fill="white"/>
<path d="M107.52 53.2455C107.334 53.0855 107.254 52.0985 107.414 52.0985C107.44 52.0985 107.841 51.9918 108.321 51.8584C109.121 51.6183 109.174 51.645 109.148 52.3652C109.121 52.8988 108.961 53.1655 108.561 53.2722C107.841 53.459 107.734 53.459 107.52 53.2455Z" fill="white"/>
<path d="M106.533 52.6317C106.533 52.445 106.613 52.3649 106.72 52.445C106.8 52.5517 106.8 52.7117 106.72 52.8184C106.613 52.8984 106.533 52.8184 106.533 52.6317Z" fill="white"/>
<path d="M109.521 52.2058C109.601 51.7523 110.428 51.0854 110.615 51.2988C110.695 51.3788 110.828 51.699 110.908 52.0457C111.095 52.5793 111.015 52.6326 110.268 52.6326C109.628 52.6326 109.441 52.5259 109.521 52.2058Z" fill="white"/>
<path d="M96.6636 52.179C96.6636 52.0456 96.797 51.7789 96.9303 51.5655C97.1437 51.2453 97.1971 51.272 97.1971 51.7789C97.1971 52.099 97.0904 52.3657 96.9303 52.3657C96.797 52.3657 96.6636 52.2857 96.6636 52.179Z" fill="white"/>
<path d="M97.4636 51.5904C97.4636 50.8434 98.0238 50.6034 98.4506 51.1635C98.7174 51.5637 98.7174 51.6971 98.4506 51.8838C97.8904 52.2306 97.4636 52.1239 97.4636 51.5904Z" fill="white"/>
<path d="M105.573 51.2439C105.093 50.7104 105.093 50.6837 105.546 50.8438C105.813 50.9505 106.16 51.0305 106.293 51.0305C106.427 51.0305 106.533 51.2172 106.533 51.4306C106.533 51.9908 106.16 51.9375 105.573 51.2439Z" fill="white"/>
<path d="M99.8379 51.2176C98.6909 50.3373 98.5308 48.3633 99.5979 48.3633C100.318 48.3633 100.985 49.4837 100.878 50.524C100.798 51.4843 100.478 51.6977 99.8379 51.2176Z" fill="white"/>
<path d="M107.147 51.3764C107.254 51.2964 107.414 51.2964 107.52 51.3764C107.6 51.4831 107.52 51.5632 107.334 51.5632C107.147 51.5632 107.067 51.4831 107.147 51.3764Z" fill="white"/>
<path d="M111.175 50.3355C111.255 50.0954 111.335 49.8554 111.335 49.802C111.335 49.7487 111.468 49.6953 111.602 49.6953C111.762 49.6953 111.869 49.9354 111.869 50.2288C111.869 50.5489 111.682 50.7623 111.442 50.7623C111.148 50.7623 111.068 50.629 111.175 50.3355Z" fill="white"/>
<path d="M97.197 50.2561C97.197 49.6426 97.7572 48.6289 98.0773 48.6289C98.6375 48.6289 98.2374 50.3361 97.6505 50.4429C97.4104 50.4962 97.197 50.4162 97.197 50.2561Z" fill="white"/>
<path d="M103.199 49.963L102.399 49.7762L103.119 49.5895C103.866 49.3761 104.399 49.5362 104.399 49.9896C104.399 50.2564 104.373 50.2564 103.199 49.963Z" fill="white"/>
<path d="M102.265 48.6841C102.265 47.5904 102.879 47.4304 103.439 48.3907C103.813 49.0309 103.839 49.1643 103.492 49.1643C103.279 49.1643 102.932 49.2443 102.692 49.3244C102.372 49.4577 102.265 49.2977 102.265 48.6841Z" fill="white"/>
<path d="M106.907 49.0583C105.706 48.5248 104.933 47.111 104.933 45.4304C104.933 44.23 105.04 43.9366 105.76 43.2697C106.213 42.8429 106.667 42.4961 106.8 42.4961C107.387 42.4961 109.548 44.5501 110.268 45.8306L111.095 47.2977L110.215 48.2314C109.201 49.2984 108.081 49.5918 106.907 49.0583Z" fill="white"/>
<path d="M101.332 48.3644C101.252 48.231 101.305 48.0977 101.438 48.0977C101.599 48.0977 101.732 48.231 101.732 48.3644C101.732 48.5245 101.679 48.6312 101.625 48.6312C101.545 48.6312 101.412 48.5245 101.332 48.3644Z" fill="white"/>
<path d="M97.8372 47.9371C97.9173 47.697 97.9973 47.4569 97.9973 47.4036C97.9973 47.3502 98.2374 47.2969 98.5308 47.2969C99.1977 47.2969 99.2244 47.7237 98.5575 48.0971C97.8372 48.4706 97.6505 48.4439 97.8372 47.9371Z" fill="white"/>
<path d="M99.9446 47.6159C99.331 47.5359 99.1443 47.1891 99.5445 46.949C99.6512 46.869 100.131 46.7356 100.611 46.6289C101.332 46.4688 101.465 46.5222 101.465 46.9757C101.465 47.5359 100.905 47.776 99.9446 47.6159Z" fill="white"/>
<path d="M101.999 46.7086C101.999 46.3885 102.025 46.2018 102.079 46.2551C102.105 46.3085 102.319 46.5752 102.505 46.842C102.825 47.2155 102.799 47.2955 102.425 47.2955C102.159 47.2955 101.999 47.0821 101.999 46.7086Z" fill="white"/>
<path d="M98.2639 46.5237C98.2639 46.3636 98.3973 46.1769 98.5307 46.0969C98.6907 46.0169 98.7974 46.1236 98.7974 46.337C98.7974 46.577 98.6907 46.7638 98.5307 46.7638C98.3973 46.7638 98.2639 46.6571 98.2639 46.5237Z" fill="white"/>
<path d="M99.2511 46.1239C99.0377 45.5904 100.932 45.0035 101.252 45.5103C101.492 45.9371 101.252 46.1239 100.238 46.3373C99.6246 46.4707 99.3578 46.4173 99.2511 46.1239Z" fill="white"/>
<path d="M101.758 45.2689C101.758 44.9755 101.838 44.8954 101.918 45.1089C101.998 45.2956 101.972 45.5357 101.892 45.6157C101.812 45.7224 101.732 45.5623 101.758 45.2689Z" fill="white"/>
<path d="M99.491 44.8402C99.8111 44.2533 100.745 43.293 100.985 43.293C101.252 43.293 101.278 44.5467 101.012 44.7068C100.878 44.7601 100.451 44.8935 100.051 45.0002C99.4643 45.1336 99.331 45.1069 99.491 44.8402Z" fill="white"/>
<path d="M101.625 44.2294C101.332 43.4291 101.465 43.0823 102.105 42.9756C102.772 42.8423 102.772 42.8423 102.345 43.6692C101.812 44.7362 101.838 44.7362 101.625 44.2294Z" fill="white"/>
<path d="M101.465 42.6271C101.465 42.5737 101.999 42.2003 102.665 41.8268C103.466 41.3467 104.026 41.1866 104.426 41.2933C104.906 41.4534 104.773 41.5601 103.599 42.1203C102.292 42.7071 101.465 42.9205 101.465 42.6271Z" fill="white"/>
<path d="M116.27 18.9932C115.55 17.9528 114.029 16.2723 112.936 15.2586C111.842 14.2449 111.122 13.418 111.335 13.418C111.922 13.418 116.403 14.645 117.524 15.1252C118.457 15.5253 118.484 15.5787 118.244 16.4056C118.111 16.8858 118.004 18.0862 118.004 19.0732C118.004 20.0869 117.924 20.8872 117.817 20.8872C117.684 20.8872 117.017 20.0335 116.27 18.9932Z" fill="white"/>
<path d="M61.9849 99.794C60.8912 99.2338 60.6512 98.9137 59.264 96.1661C57.2634 92.2714 57.21 91.3645 59.104 93.5786C59.8509 94.4589 61.5848 96.2728 62.9453 97.6066C65.2661 99.8473 65.3728 100.007 64.5992 99.9007C64.039 99.8207 63.8256 99.874 63.9589 100.087C64.2791 100.568 63.2654 100.434 61.9849 99.794Z" fill="white"/>
<path fill-rule="evenodd" clip-rule="evenodd" d="M106.691 148.397C106.469 147.871 106.716 147.265 107.242 147.044L107.817 146.8C113.404 144.409 116.612 142.973 118.791 140.692C120.97 138.412 121.231 135.062 121.64 133.024C121.753 132.464 123.019 133.447 123.579 133.559C124.138 133.671 124.5 134.216 124.388 134.775C123.896 137.226 122.57 139.562 120.436 141.78C118.309 143.99 114.191 146.36 108.044 148.948C107.518 149.169 106.912 148.922 106.691 148.397Z" fill="#0F172A"/>
<path fill-rule="evenodd" clip-rule="evenodd" d="M131.959 41.958C132.449 41.6662 133.083 41.827 133.375 42.3173C136.297 47.2261 137.863 52.8374 137.863 58.6755C137.863 76.3623 123.525 90.7003 105.838 90.7003C101.138 90.7003 96.5797 89.6865 92.4055 87.7553C91.8877 87.5157 89.9317 85.6081 91.9017 86.384C93.8718 87.1598 101.494 88.9012 105.893 88.9012C122.438 88.9012 134.144 75.2212 134.144 58.6755C134.144 53.212 131.959 48.3625 131.6 43.3741C131.558 42.7959 131.469 42.2499 131.959 41.958Z" fill="#0F172A"/>
<path fill-rule="evenodd" clip-rule="evenodd" d="M29.6475 120.147C30.0127 119.708 30.6641 118.823 31.1025 119.188C32.9009 120.686 34.82 122.421 36.8728 122.756C39.0091 123.105 41.5433 123.105 44.4724 122.75C45.0388 122.682 45.5535 123.085 45.6221 123.652C45.6907 124.218 45.2871 124.733 44.7207 124.801C41.6102 125.178 38.8844 125.178 36.5401 124.795C34.1124 124.399 31.8548 123.33 29.7801 121.602C29.3417 121.237 29.2824 120.585 29.6475 120.147Z" fill="#0F172A"/>
<path d="M51.5817 84.0034C50.2479 82.9363 47.3936 79.7886 45.2329 77.0143C44.1125 75.5472 42.8588 72.5595 42.1119 69.5452C41.7651 68.1847 41.4183 66.9576 41.3383 66.7976C41.2316 66.6642 40.8047 64.7702 40.3779 62.5828C39.7377 59.4884 39.8731 58.4915 39.3109 54.7902C39.0729 53.2231 38.8574 51.9761 38.8574 51.9761L39.551 51.0856C39.9511 50.5521 40.4573 49.6692 40.6447 49.1649C41.4983 46.8681 47.7671 39.6684 47.9538 39.8551C48.0072 39.9085 47.7938 41.1622 47.4203 42.6294C47.0735 44.0966 46.6467 46.3106 46.46 47.5644C46.1932 49.6451 46.0865 49.8852 45.2596 50.5787C44.2192 51.459 42.2452 54.2867 42.2452 54.8735C42.2452 55.6738 43.4456 55.1403 44.6994 53.8332L45.9798 52.4994V53.9666C45.9798 54.9269 45.7931 55.8072 45.4463 56.5007C44.7794 57.8079 44.7794 59.195 45.4196 60.262C45.7397 60.7955 46.0332 62.076 46.2199 63.5965C47.0469 70.4788 48.8074 76.4542 51.8218 82.4562C52.5687 83.95 53.1556 85.1771 53.1289 85.1771C53.0756 85.1771 52.382 84.6436 51.5817 84.0034Z" fill="white"/>
<path fill-rule="evenodd" clip-rule="evenodd" d="M162.579 100.461L164.5 101.314C164.898 101.498 169.291 103.609 174.569 106.145C183.077 110.233 193.884 115.426 193.95 115.426C194.056 115.426 194.557 114.268 194.67 112.918C194.937 110.01 195.924 106.062 197.071 103.315C197.604 102.088 198.031 100.554 198.031 100.421C198.031 100.36 197.597 100.185 196.887 99.8986C196.042 99.5577 194.806 99.0589 193.443 98.4065C186.721 95.1788 173.569 88.5899 171.942 87.6029C170.342 86.6693 170.022 86.5892 170.022 87.2028C170.022 88.003 168.394 91.711 167.141 93.7116C166.474 94.8053 165.167 96.7793 164.233 98.0864L162.579 100.461ZM193.496 110.624C194.261 111.067 192.936 111.718 192.616 111.824C190.731 111.985 188.512 111.63 186.694 110.571C185.743 109.897 178.258 105.738 173.293 102.98C171.023 101.718 169.279 100.75 168.928 100.541C167.808 99.8738 166.741 99.1535 166.554 98.9401C165.994 98.2199 166.527 97.8998 168.101 98.0331C169.047 98.1133 191.844 109.666 193.496 110.624Z" fill="white"/>
<path d="M143.426 102.862C142.732 102.622 141.986 102.089 141.505 101.475L140.705 100.488L143.533 97.6872C147.881 93.4191 151.082 88.7546 153.963 83.5528C154.923 81.8189 157.778 74.8262 158.124 74.0526C158.658 72.9322 159.058 72.5054 160.205 71.8652C161.565 71.0649 163.113 70.7981 163.78 71.2516C165.06 72.1052 165.06 74.7995 163.78 79.441C162.366 84.5361 160.472 88.1907 156.55 93.4458C155.937 94.246 154.79 95.8199 153.963 96.9136C151.749 99.8479 150.308 101.262 148.361 102.355C146.44 103.422 145.32 103.556 143.426 102.862Z" fill="white"/>
<path d="M153.483 102.247L152.922 101.687C152.922 101.687 162.22 89.874 163.886 85.5214C165.157 82.1997 165.906 81.2578 166.915 81.2578C167.48 81.2578 167.941 81.3867 168.154 81.7068C168.528 82.267 168.888 82.9605 168.407 85.3347C167.607 89.176 166.38 91.7102 162.699 97.1787C161.845 98.4324 160.751 99.8196 160.271 100.3C159.151 101.34 156.63 102.407 155.163 102.647C154.229 102.781 153.963 102.727 153.483 102.247Z" fill="white"/>
<path fill-rule="evenodd" clip-rule="evenodd" d="M169.1 89.8955C169.638 88.6647 170.022 87.5912 170.022 87.2028C170.022 86.5892 170.342 86.6693 171.942 87.6029C173.569 88.5899 186.721 95.1788 193.443 98.4066C195.95 99.607 198.031 100.287 198.031 100.421C198.031 100.554 168.53 91.2004 169.1 89.8955Z" fill="#F1F5F9"/>
<path fill-rule="evenodd" clip-rule="evenodd" d="M77.8305 91.4166C74.4427 89.2026 69.3209 84.0008 66.8401 80.2929C63.2922 74.9577 60.9448 69.2492 59.7977 63.1137C58.9708 58.6589 58.9974 51.8033 59.8244 47.8286C60.678 43.7739 61.7717 40.6795 63.719 36.7582C65.9865 32.2233 68.3873 28.8889 71.9885 25.2876C75.52 21.7562 59.8244 36.3603 63.719 62.4902C66.8401 84.387 80.2532 93.013 77.8305 91.4166Z" fill="#F1F5F9"/>
</svg>
